<?xml version="1.0" encoding="UTF-8" standalone="no"?>
<svg width="143px" height="167px" viewBox="0 0 143 167" version="1.1" xmlns="http://www.w3.org/2000/svg" xmlns:xlink="http://www.w3.org/1999/xlink" xmlns:sketch="http://www.bohemiancoding.com/sketch/ns">
    <!-- Generator: Sketch 3.5.1 (25234) - http://www.bohemiancoding.com/sketch -->
    <title>Artboard 5</title>
    <desc>Created with Sketch.</desc>
    <defs>
        <path id="path-1" d="M898.684921,561.709292 C898.684921,561.709292 899.925816,556.475021 896.40324,551.545178 C892.880664,546.615335 889.86339,542.029435 894.274155,539.331879 C898.684921,536.634323 903.118416,541.259738 903.118416,541.259738 C903.118416,541.259738 906.584723,535.446664 911.547744,536.961013 C916.510765,538.475362 915.984223,544.476329 911.547744,549.241544 C907.111266,554.00676 898.684921,561.709292 898.684921,561.709292 Z"></path>
        <path id="path-2" d="M943.080166,560.470563 C943.080166,560.470563 944.321061,555.236292 940.798485,550.306448 C937.275909,545.376605 934.258635,540.790706 938.6694,538.09315 C943.080166,535.395593 947.513661,540.021009 947.513661,540.021009 C947.513661,540.021009 950.979969,534.207935 955.94299,535.722284 C960.906011,537.236633 960.379468,543.2376 955.94299,548.002815 C951.506511,552.76803 943.080166,560.470563 943.080166,560.470563 Z"></path>
        <path id="path-3" d="M913.070585,550.008361 C913.070585,550.008361 914.917633,542.217252 909.674349,534.879278 C904.431065,527.541304 899.939911,520.715284 906.505248,516.700025 C913.070586,512.684766 919.669755,519.569605 919.669755,519.569605 C919.669755,519.569605 924.829285,510.91696 932.216643,513.171038 C939.604002,515.425117 938.820253,524.357437 932.216643,531.450366 C925.613033,538.543294 913.070585,550.008361 913.070585,550.008361 Z"></path>
    </defs>
    <g id="Welcome" stroke="none" stroke-width="1" fill="none" fill-rule="evenodd" sketch:type="MSPage">
        <g id="Artboard-5" sketch:type="MSArtboardGroup" transform="translate(-852.000000, -510.000000)">
            <path d="M870.151348,663.079617 C872.084216,666.982235 879.369145,670.27877 903.559253,670.27877 C927.749361,670.27877 942.02099,667.98835 943.919388,663.07962 C945.817785,658.170889 934.79218,649.786847 932.989186,626.899481 C931.186192,604.012116 933.851803,595.159087 929.592438,581.328381 C925.333073,567.497675 914.669493,566.60219 907.043846,566.60219 C899.4182,566.602191 891.319094,567.500881 885.50045,581.328381 C879.681805,595.15588 885.304036,608.956124 883.023236,626.899483 C880.742437,644.842842 868.218481,659.176998 870.151348,663.079617 Z M907.08829,666.88145 C925.313686,666.88145 940.08829,664.419016 940.08829,661.38145 C940.08829,658.343884 925.313686,655.88145 907.08829,655.88145 C888.862893,655.88145 874.08829,658.343884 874.08829,661.38145 C874.08829,664.419016 888.862893,666.88145 907.08829,666.88145 Z" id="Path-39" fill="#FF7B7B" sketch:type="MSShapeGroup" transform="translate(907.043845, 618.440480) rotate(-330.000000) translate(-907.043845, -618.440480) "></path>
            <path d="M902.95035,657.106397 C904.883218,661.009015 912.168147,664.30555 936.358255,664.30555 C960.548363,664.30555 974.819992,662.01513 976.718389,657.1064 C978.616787,652.19767 967.591182,643.813627 965.788188,620.926262 C963.985194,598.038896 966.650805,589.185867 962.39144,575.355161 C958.132075,561.524455 947.468495,560.62897 939.842848,560.628971 C932.217202,560.628971 924.118096,561.527662 918.299451,575.355161 C912.480807,589.18266 918.103038,602.982904 915.822238,620.926263 C913.541439,638.869622 901.017483,653.203779 902.95035,657.106397 Z M939.887291,660.90823 C958.112688,660.90823 972.887291,658.445797 972.887291,655.40823 C972.887291,652.370664 958.112688,649.90823 939.887291,649.90823 C921.661895,649.90823 906.887291,652.370664 906.887291,655.40823 C906.887291,658.445797 921.661895,660.90823 939.887291,660.90823 Z" id="Path-39" fill="#FF5959" sketch:type="MSShapeGroup" transform="translate(939.842847, 612.467260) rotate(-30.000000) translate(-939.842847, -612.467260) "></path>
            <circle id="Oval-94" fill="#FF7B7B" sketch:type="MSShapeGroup" cx="882" cy="652" r="5"></circle>
            <circle id="Oval-94" fill="#FF5959" sketch:type="MSShapeGroup" cx="960" cy="647" r="5"></circle>
            <g id="Path-38">
                <use stroke="none" fill="#FFDAD4" fill-rule="evenodd" sketch:type="MSShapeGroup" transform="translate(903.575318, 549.209292) rotate(-60.000000) translate(-903.575318, -549.209292) " xlink:href="#path-1"></use>
                <use stroke="#FFDAD4" stroke-width="5" fill="none" xlink:href="#path-1"></use>
            </g>
            <g id="Path-38">
                <use stroke="none" fill="#FFDAD4" fill-rule="evenodd" sketch:type="MSShapeGroup" transform="translate(947.970563, 547.970563) scale(-1, 1) rotate(-45.000000) translate(-947.970563, -547.970563) " xlink:href="#path-2"></use>
                <use stroke="#FFDAD4" stroke-width="5" fill="none" xlink:href="#path-2"></use>
            </g>
            <g id="Path-38">
                <use stroke="none" fill="#FFDAD4" fill-rule="evenodd" sketch:type="MSShapeGroup" transform="translate(920.349844, 531.402359) scale(-1, 1) rotate(-15.000000) translate(-920.349844, -531.402359) " xlink:href="#path-3"></use>
                <use stroke="#FFDAD4" stroke-width="5" fill="none" xlink:href="#path-3"></use>
            </g>
        </g>
    </g>
</svg>