<?xml version="1.0" encoding="UTF-8" standalone="no"?>
<svg width="400px" height="235px" viewBox="0 0 400 235" version="1.1" xmlns="http://www.w3.org/2000/svg" xmlns:xlink="http://www.w3.org/1999/xlink" xmlns:sketch="http://www.bohemiancoding.com/sketch/ns">
    <!-- Generator: Sketch 3.5.2 (25235) - http://www.bohemiancoding.com/sketch -->
    <title>Group 18</title>
    <desc>Created with Sketch.</desc>
    <defs></defs>
    <g id="Page-1" stroke="none" stroke-width="1" fill="none" fill-rule="evenodd" sketch:type="MSPage">
        <g id="Desktop-HD" sketch:type="MSArtboardGroup" transform="translate(-519.000000, -2086.000000)">
            <g id="Group-7" sketch:type="MSLayerGroup" transform="translate(161.000000, 1945.000000)">
                <g id="Group-5" transform="translate(358.000000, 127.000000)" sketch:type="MSShapeGroup">
                    <g id="Group-18">
                        <path d="M74.7,201.45 C75.61,198.37 77.78,196.9 81,196.9 C85.97,196.9 90.1,201.17 90.1,207.33 C90.1,215.31 83.87,220.49 77.08,220.49 C70.08,220.49 62.94,214.96 62.94,201.52 C62.94,197.67 63.5,193.96 64.41,190.53 C84.71,190.11 98.29,176.18 98.29,167.99 C98.29,163.86 95.07,161.83 90.24,161.83 C74.35,161.83 61.61,174.78 55.52,188.99 C48.87,187.31 46.7,183.46 46.7,179.61 C46.7,175.97 49.15,173.03 52.65,173.03 C54.4,173.03 56.29,173.66 57.41,176.11 L57.9,176.11 C56.78,173.45 54.54,172.4 52.65,172.4 C49.01,172.4 46,175.83 46,179.68 C46,183.46 48.52,187.73 55.31,189.55 C53,195.15 51.74,200.96 51.74,206.21 C51.74,217.13 57.2,225.74 70.01,225.74 C80.16,225.74 90.87,218.46 90.87,207.33 C90.87,200.19 85.76,196.2 81,196.2 C77.92,196.2 75.12,197.81 74,201.45 L74.7,201.45 Z M90.24,162.6 C107.6,162.6 92.34,189.2 64.55,189.83 C69.17,173.59 82.47,162.6 90.24,162.6 L90.24,162.6 Z M122.16,185.07 C97.6599999,185.07 92.1999999,223.64 112.64,223.64 C120.41,223.64 126.22,220.35 129.65,211.6 L129.09,211.6 C125.94,218.74 122.51,220.91 118.59,220.91 C112.78,220.91 110.12,215.73 109.77,209.36 C123.28,208.17 130.35,199.21 130.35,192.49 C130.35,188.36 127.69,185.07 122.16,185.07 L122.16,185.07 Z M122.93,185.91 C127.41,185.91 129.65,188.71 129.65,192.35 C129.65,198.65 122.93,207.54 109.7,208.73 C109.42,198.65 114.81,185.91 122.93,185.91 L122.93,185.91 Z M135.95,191.23 C137.21,189.48 139.31,188.01 141.41,188.01 C142.74,188.01 143.58,188.99 143.58,190.53 C143.58,195.36 137.77,218.39 136.44,225.18 L137,225.18 L137.56,222.45 C139.1,221.89 140.85,221.54 142.11,221.54 C143.72,221.54 144.84,222.03 146.38,222.8 C147.5,217.69 151.28,201.52 152.19,195.08 C154.99,190.25 158.77,187.17 162.13,187.17 C162.83,187.17 164.09,187.45 164.65,187.94 C163.18,188.08 159.4,189.2 159.4,193.96 C159.4,197.04 161.57,199 164.16,199 C167.45,199 169.62,195.92 169.62,192.77 C169.62,188.64 166.19,186.54 162.06,186.54 C158.91,186.54 155.27,189.13 152.4,193.4 L152.4,192.98 C152.4,188.36 148.76,186.26 144.77,186.26 C141.13,186.26 137.14,188.01 135.32,191.09 L135.95,191.23 Z M197.62,185.07 C173.12,185.07 167.66,223.64 188.1,223.64 C195.87,223.64 201.68,220.35 205.11,211.6 L204.55,211.6 C201.4,218.74 197.97,220.91 194.05,220.91 C188.24,220.91 185.58,215.73 185.23,209.36 C198.74,208.17 205.81,199.21 205.81,192.49 C205.81,188.36 203.15,185.07 197.62,185.07 L197.62,185.07 Z M198.39,185.91 C202.87,185.91 205.11,188.71 205.11,192.35 C205.11,198.65 198.39,207.54 185.16,208.73 C184.88,198.65 190.27,185.91 198.39,185.91 L198.39,185.91 Z M264.89,192.21 C264.89,186.75 262.44,185.21 258.66,185.21 C253.41,185.21 249.07,189.34 246.48,192.7 L246.48,192.21 C246.48,186.75 244.03,185.21 240.25,185.21 C235,185.21 230.59,189.34 228,192.7 C228.07,192.42 228.07,192.14 228.07,191.93 C228.07,186.47 224.22,185.21 220.44,185.21 C216.87,185.21 212.95,186.61 210.99,189.69 L211.62,189.83 C212.88,188.08 215.05,186.61 217.08,186.61 C218.34,186.61 219.25,187.66 219.25,189.13 C219.25,193.96 213.23,218.39 211.9,225.18 L212.46,225.18 L213.02,222.45 C214.56,221.89 216.31,221.54 217.57,221.54 C219.18,221.54 220.3,222.03 221.84,222.8 C222.96,217.62 227.02,200.19 227.86,193.82 C229.68,191.23 233.6,187.31 235.35,187.31 C236.61,187.31 237.31,188.57 237.31,190.74 C237.31,195.57 231.64,218.39 230.31,225.18 L230.87,225.18 L231.43,222.45 C232.97,221.89 234.72,221.54 235.98,221.54 C237.59,221.54 238.71,222.03 240.25,222.8 C241.37,217.55 245.5,199.84 246.34,193.75 C248.16,191.23 252.01,187.31 253.76,187.31 C255.02,187.31 255.72,188.57 255.72,190.74 C255.72,196.41 250.82,210.06 250.82,216.5 C250.82,221.4 254.32,223.78 258.1,223.78 C262.86,223.78 267.2,220 267.83,212.44 L267.27,212.44 C266.71,219.58 262.79,222.31 261.18,222.31 C259.92,222.31 258.73,221.54 258.73,219.23 C258.73,214.47 264.89,196.13 264.89,192.21 L264.89,192.21 Z M301.5,191.72 C297.72,191.72 295.76,195.08 295.76,198.16 C295.76,201.24 297.93,203.2 300.52,203.2 C303.46,203.2 305.49,200.75 305.91,198.02 L305.91,198.86 C305.91,208.31 299.61,220.77 292.47,220.77 C286.45,220.77 283.86,215.17 283.86,208.03 C283.86,198.51 288.9,186.26 296.32,186.26 C297.58,186.26 300.73,186.75 302.97,189.34 L302.9,188.71 C300.59,185.91 296.95,185.56 295.2,185.56 C283.16,185.56 274.83,197.04 274.83,210.13 C274.83,217.69 278.96,224.06 287.64,224.06 C298.63,224.06 306.61,209.92 306.61,199.07 C306.61,195.5 305.07,191.72 301.5,191.72 L301.5,191.72 Z M350.569999,192.07 C350.569999,187.1 347.279999,185.21 343.149999,185.21 C338.389999,185.21 332.789999,187.73 329.989999,190.88 C329.499999,186.33 325.929999,185.21 322.429999,185.21 C318.859999,185.21 314.939999,186.61 312.979999,189.69 L313.609999,189.83 C314.869999,188.08 317.039999,186.61 319.069999,186.61 C320.329999,186.61 321.239999,187.66 321.239999,189.13 C321.239999,193.96 315.219999,218.39 313.889999,225.18 L314.449999,225.18 L315.009999,222.45 C316.549999,221.89 318.299999,221.54 319.559999,221.54 C321.169999,221.54 322.289999,222.03 323.829999,222.8 C325.089999,216.99 330.059999,195.57 330.059999,191.93 L330.059999,191.65 C331.949999,189.55 335.239999,187.31 337.759999,187.31 C339.649999,187.31 341.119999,188.5 341.119999,191.51 C341.119999,198.16 336.569999,209.15 336.569999,216.5 C336.569999,221.4 340.069999,223.78 343.849999,223.78 C348.609999,223.78 352.949999,220 353.579999,212.44 L353.019999,212.44 C352.459999,219.58 348.539999,222.31 346.929999,222.31 C345.669999,222.31 344.479999,221.54 344.479999,219.23 C344.479999,214.26 350.569999,196.83 350.569999,192.07 L350.569999,192.07 Z M382.699999,217.76 C380.389999,220.07 377.169999,221.54 375.209999,221.54 C373.459999,221.54 371.779999,220.63 371.779999,217.34 C371.779999,210.69 376.679999,197.46 376.679999,192.21 C376.679999,187.31 373.179999,185.28 369.399999,185.28 C364.709999,185.28 359.949999,188.85 359.319999,196.41 L359.879999,196.41 C360.439999,189.13 364.709999,186.75 366.459999,186.75 C367.719999,186.75 368.559999,187.38 368.559999,189.2 C368.559999,193.75 362.329999,211.95 362.329999,216.71 C362.329999,221.33 364.989999,223.64 370.239999,223.64 C363.029999,226.3 357.359999,230.29 357.359999,237.85 C357.359999,243.38 362.679999,248.07 369.259999,248.07 C378.779999,248.07 386.689999,241.42 390.959999,221.75 L399.079999,184.3 L398.519999,184.3 L397.959999,186.96 C395.719999,187.66 394.809999,187.87 393.549999,187.87 C391.939999,187.87 390.679999,187.38 389.139999,186.61 L382.699999,217.76 Z M382.559999,218.6 C378.569999,235.96 372.129999,241.28 365.829999,241.28 C361.699999,241.28 358.969999,238.41 358.969999,235.47 C358.969999,229.73 364.849999,226.44 371.849999,223.5 C376.329999,222.73 379.829999,221.12 382.559999,218.6 L382.559999,218.6 Z" id="Ceremony" fill="#9C9C9C"></path>
                        <path d="M0.26,188.04 L2.27,188.04 C1.31,192.45 0.05,198.39 0.05,199.47 C0.05,201.57 1.58,202.56 3.2,202.56 C5.96,202.56 7.7,201.06 8.03,197.76 L7.76,197.76 C7.49,200.82 5.66,201.93 4.76,201.93 C4.34,201.93 3.71,201.72 3.71,200.91 C3.71,199.71 5.12,193.29 6.29,188.04 L9.62,188.04 L9.71,187.74 L6.35,187.74 C6.98,184.92 7.55,182.46 7.76,181.44 L7.52,181.44 L7.28,182.49 C7.01,183.66 6.14,184.14 5.27,184.14 C4.64,184.14 3.92,183.99 3.23,183.69 L2.33,187.74 L0.35,187.74 L0.26,188.04 Z M5.7800001,171.99 C5.7800001,173.31 6.7100001,174.15 7.8200001,174.15 C9.2300001,174.15 10.1600001,172.83 10.1600001,171.48 C10.1600001,170.25 9.2000001,169.2 8.0000001,169.2 C5.2400001,169.2 4.1000001,172.2 4.1000001,174.51 C4.1000001,178.35 6.9800001,182.97 14.6300001,184.44 C13.4600001,190.41 11.0000001,201.03 10.5800001,203.22 L10.8200001,203.22 L11.0600001,202.05 C11.7200001,201.81 12.4700001,201.66 13.0100001,201.66 C13.7000001,201.66 14.1200001,201.87 14.7800001,202.2 C15.0800001,200.76 16.4600001,194.67 17.5400001,189.54 C18.3200001,188.58 19.8500001,187.5 20.9900001,187.5 C21.8000001,187.5 22.4300001,188.01 22.4300001,189.3 C22.4300001,192.15 20.4800001,196.86 20.4800001,200.01 C20.4800001,202.11 21.9800001,203.13 23.6000001,203.13 C25.6400001,203.13 27.5000001,201.51 27.7700001,198.27 L27.5300001,198.27 C27.2900001,201.33 25.6100001,202.5 24.9200001,202.5 C24.3800001,202.5 23.8700001,202.17 23.8700001,201.18 C23.8700001,199.05 26.4800001,191.58 26.4800001,189.54 C26.4800001,187.41 25.0700001,186.6 23.3000001,186.6 C21.2600001,186.6 18.8600001,187.68 17.6600001,189.03 C17.9900001,187.5 18.2600001,186.06 18.5000001,184.86 C18.9500001,184.89 19.4000001,184.89 19.8800001,184.89 C31.5200001,184.89 40.7900001,174.93 40.7900001,168.57 C40.7900001,165.57 38.7500001,163.38 33.9500001,163.38 C29.9600001,163.38 20.9900001,167.04 18.8300001,180.81 C18.4100001,179.22 17.0600001,178.77 15.8900001,178.77 C14.2100001,178.77 12.5600001,179.4 11.7200001,180.72 L11.9900001,180.78 C12.7100001,179.85 13.4900001,179.43 14.0600001,179.43 C14.7500001,179.43 15.2600001,179.73 15.2600001,180.48 C15.2600001,180.96 15.0200001,182.34 14.6900001,184.11 C7.2200001,182.7 4.4300001,178.23 4.4300001,174.57 C4.4300001,171.99 5.5100001,170.43 6.7400001,169.8 C6.1100001,170.34 5.7800001,171.21 5.7800001,171.99 L5.7800001,171.99 Z M18.9800001,181.98 C20.2700001,171.81 25.4600001,166.89 29.6900001,166.89 C32.2700001,166.89 34.3100001,168.69 34.3100001,172.11 C34.3100001,180.3 25.4300001,184.56 19.8800001,184.56 C19.4300001,184.56 18.9800001,184.56 18.5600001,184.53 C18.8000001,183.27 18.9800001,182.34 18.9800001,181.98 L18.9800001,181.98 Z M40.4000002,186.03 C29.9000002,186.03 27.5600002,202.56 36.3200002,202.56 C39.6500002,202.56 42.1400002,201.15 43.6100002,197.4 L43.3700002,197.4 C42.0200002,200.46 40.5500002,201.39 38.8700002,201.39 C36.3800002,201.39 35.2400002,199.17 35.0900002,196.44 C40.8800002,195.93 43.9100002,192.09 43.9100002,189.21 C43.9100002,187.44 42.7700002,186.03 40.4000002,186.03 L40.4000002,186.03 Z M40.7300002,186.39 C42.6500002,186.39 43.6100002,187.59 43.6100002,189.15 C43.6100002,191.85 40.7300002,195.66 35.0600002,196.17 C34.9400002,191.85 37.2500002,186.39 40.7300002,186.39 L40.7300002,186.39 Z" id="the" fill="#9C9C9C"></path>
                        <path d="M148.201912,114.800847 C150.134779,118.703465 157.419708,122 181.609816,122 C205.799924,122 220.071554,119.70958 221.969951,114.80085 C223.868348,109.89212 212.842743,101.508077 211.039749,78.6207116 C209.236755,55.7333459 211.902367,46.8803172 207.643002,33.0496111 C203.383636,19.218905 192.720057,18.3234199 185.09441,18.3234205 C177.468763,18.3234211 169.369658,19.2221118 163.551013,33.0496111 C157.732368,46.8771104 163.354599,60.6773541 161.0738,78.6207132 C158.793,96.5640723 146.269044,110.898229 148.201912,114.800847 Z M185.138853,118.60268 C203.36425,118.60268 218.138853,116.140247 218.138853,113.10268 C218.138853,110.065114 203.36425,107.60268 185.138853,107.60268 C166.913456,107.60268 152.138853,110.065114 152.138853,113.10268 C152.138853,116.140247 166.913456,118.60268 185.138853,118.60268 Z" id="Path-39" fill="#FF7B7B" transform="translate(185.094408, 70.161710) rotate(-330.000000) translate(-185.094408, -70.161710) "></path>
                        <path d="M180.201912,108.800847 C182.134779,112.703465 189.419708,116 213.609816,116 C237.799924,116 252.071554,113.70958 253.969951,108.80085 C255.868348,103.89212 244.842743,95.5080772 243.039749,72.6207116 C241.236755,49.7333459 243.902367,40.8803172 239.643002,27.0496111 C235.383636,13.218905 224.720057,12.3234199 217.09441,12.3234205 C209.468763,12.3234211 201.369658,13.2221118 195.551013,27.0496111 C189.732368,40.8771104 195.354599,54.6773541 193.0738,72.6207132 C190.793,90.5640723 178.269044,104.898229 180.201912,108.800847 Z M217.138853,112.60268 C235.36425,112.60268 250.138853,110.140247 250.138853,107.10268 C250.138853,104.065114 235.36425,101.60268 217.138853,101.60268 C198.913456,101.60268 184.138853,104.065114 184.138853,107.10268 C184.138853,110.140247 198.913456,112.60268 217.138853,112.60268 Z" id="Path-39" fill="#FF5959" transform="translate(217.094408, 64.161710) rotate(-30.000000) translate(-217.094408, -64.161710) "></path>
                        <circle id="Oval-94" fill="#FF7B7B" cx="160.050563" cy="103.72123" r="5"></circle>
                        <circle id="Oval-94" fill="#FF5959" cx="238.050563" cy="98.7212304" r="5"></circle>
                    </g>
                </g>
            </g>
        </g>
    </g>
</svg>