<?xml version="1.0" encoding="UTF-8" standalone="no"?>
<svg width="328px" height="190px" viewBox="0 0 328 190" version="1.1" xmlns="http://www.w3.org/2000/svg" xmlns:xlink="http://www.w3.org/1999/xlink" xmlns:sketch="http://www.bohemiancoding.com/sketch/ns">
    <!-- Generator: Sketch 3.5.2 (25235) - http://www.bohemiancoding.com/sketch -->
    <title>Group 17</title>
    <desc>Created with Sketch.</desc>
    <defs></defs>
    <g id="Page-1" stroke="none" stroke-width="1" fill="none" fill-rule="evenodd" sketch:type="MSPage">
        <g id="Desktop-HD" sketch:type="MSArtboardGroup" transform="translate(-552.000000, -1305.000000)" fill="#FFFFFF">
            <g id="Group-8" sketch:type="MSLayerGroup" transform="translate(164.000000, 1130.000000)">
                <g id="Group-3" transform="translate(388.000000, 175.000000)" sketch:type="MSShapeGroup">
                    <g id="Group-17">
                        <path d="M0.26,132.04 L2.27,132.04 C1.31,136.45 0.05,142.39 0.05,143.47 C0.05,145.57 1.58,146.56 3.2,146.56 C5.96,146.56 7.7,145.06 8.03,141.76 L7.76,141.76 C7.49,144.82 5.66,145.93 4.76,145.93 C4.34,145.93 3.71,145.72 3.71,144.91 C3.71,143.71 5.12,137.29 6.29,132.04 L9.62,132.04 L9.71,131.74 L6.35,131.74 C6.98,128.92 7.55,126.46 7.76,125.44 L7.52,125.44 L7.28,126.49 C7.01,127.66 6.14,128.14 5.27,128.14 C4.64,128.14 3.92,127.99 3.23,127.69 L2.33,131.74 L0.35,131.74 L0.26,132.04 Z M5.7800001,115.99 C5.7800001,117.31 6.7100001,118.15 7.8200001,118.15 C9.2300001,118.15 10.1600001,116.83 10.1600001,115.48 C10.1600001,114.25 9.2000001,113.2 8.0000001,113.2 C5.2400001,113.2 4.1000001,116.2 4.1000001,118.51 C4.1000001,122.35 6.9800001,126.97 14.6300001,128.44 C13.4600001,134.41 11.0000001,145.03 10.5800001,147.22 L10.8200001,147.22 L11.0600001,146.05 C11.7200001,145.81 12.4700001,145.66 13.0100001,145.66 C13.7000001,145.66 14.1200001,145.87 14.7800001,146.2 C15.0800001,144.76 16.4600001,138.67 17.5400001,133.54 C18.3200001,132.58 19.8500001,131.5 20.9900001,131.5 C21.8000001,131.5 22.4300001,132.01 22.4300001,133.3 C22.4300001,136.15 20.4800001,140.86 20.4800001,144.01 C20.4800001,146.11 21.9800001,147.13 23.6000001,147.13 C25.6400001,147.13 27.5000001,145.51 27.7700001,142.27 L27.5300001,142.27 C27.2900001,145.33 25.6100001,146.5 24.9200001,146.5 C24.3800001,146.5 23.8700001,146.17 23.8700001,145.18 C23.8700001,143.05 26.4800001,135.58 26.4800001,133.54 C26.4800001,131.41 25.0700001,130.6 23.3000001,130.6 C21.2600001,130.6 18.8600001,131.68 17.6600001,133.03 C17.9900001,131.5 18.2600001,130.06 18.5000001,128.86 C18.9500001,128.89 19.4000001,128.89 19.8800001,128.89 C31.5200001,128.89 40.7900001,118.93 40.7900001,112.57 C40.7900001,109.57 38.7500001,107.38 33.9500001,107.38 C29.9600001,107.38 20.9900001,111.04 18.8300001,124.81 C18.4100001,123.22 17.0600001,122.77 15.8900001,122.77 C14.2100001,122.77 12.5600001,123.4 11.7200001,124.72 L11.9900001,124.78 C12.7100001,123.85 13.4900001,123.43 14.0600001,123.43 C14.7500001,123.43 15.2600001,123.73 15.2600001,124.48 C15.2600001,124.96 15.0200001,126.34 14.6900001,128.11 C7.2200001,126.7 4.4300001,122.23 4.4300001,118.57 C4.4300001,115.99 5.5100001,114.43 6.7400001,113.8 C6.1100001,114.34 5.7800001,115.21 5.7800001,115.99 L5.7800001,115.99 Z M18.9800001,125.98 C20.2700001,115.81 25.4600001,110.89 29.6900001,110.89 C32.2700001,110.89 34.3100001,112.69 34.3100001,116.11 C34.3100001,124.3 25.4300001,128.56 19.8800001,128.56 C19.4300001,128.56 18.9800001,128.56 18.5600001,128.53 C18.8000001,127.27 18.9800001,126.34 18.9800001,125.98 L18.9800001,125.98 Z M40.4000002,130.03 C29.9000002,130.03 27.5600002,146.56 36.3200002,146.56 C39.6500002,146.56 42.1400002,145.15 43.6100002,141.4 L43.3700002,141.4 C42.0200002,144.46 40.5500002,145.39 38.8700002,145.39 C36.3800002,145.39 35.2400002,143.17 35.0900002,140.44 C40.8800002,139.93 43.9100002,136.09 43.9100002,133.21 C43.9100002,131.44 42.7700002,130.03 40.4000002,130.03 L40.4000002,130.03 Z M40.7300002,130.39 C42.6500002,130.39 43.6100002,131.59 43.6100002,133.15 C43.6100002,135.85 40.7300002,139.66 35.0600002,140.17 C34.9400002,135.85 37.2500002,130.39 40.7300002,130.39 L40.7300002,130.39 Z" id="the"></path>
                        <path d="M73,141.8 C73,134.5 68,131.8 62.4,131.8 C56.1,131.8 50.7,134.7 48.5,137.9 L49.4,137.9 C51.2,135.5 55.1,133.4 57.5,133.4 C59.4,133.4 60.5,134.3 60.5,137 C60.5,146.5 52.9,166.8 52.9,176.3 C52.9,183 57.6,187.2 64,187.2 C70.6,187.2 76.7,181.8 78.1,171.2 L77.2,171.3 C76.6,180.5 69.8,185.8 67.5,185.8 C65.7,185.8 64.4,184.3 64.4,180.6 C64.4,172.5 73,150.6 73,141.8 L73,141.8 Z M72.6,109.4 C67.2,109.4 64.4,114.2 64.4,118.6 C64.4,123 67.5,125.8 71.2,125.8 C75.9,125.8 79,121.4 79,116.9 C79,113.1 76.4,109.4 72.6,109.4 L72.6,109.4 Z M138,142.1 C138,135 133.3,132.3 127.4,132.3 C120.6,132.3 112.6,135.9 108.6,140.4 C107.9,133.9 102.8,132.3 97.8,132.3 C92.7,132.3 87.1,134.3 84.3,138.7 L85.2,138.9 C87,136.4 90.1,134.3 93,134.3 C94.8,134.3 96.1,135.8 96.1,137.9 C96.1,144.8 87.5,179.7 85.6,189.4 L86.4,189.4 L87.2,185.5 C89.4,184.7 91.9,184.2 93.7,184.2 C96,184.2 97.6,184.9 99.8,186 C101.6,177.7 108.7,147.1 108.7,141.9 L108.7,141.5 C111.4,138.5 116.1,135.3 119.7,135.3 C122.4,135.3 124.5,137 124.5,141.3 C124.5,150.8 118,166.5 118,177 C118,184 123,187.4 128.4,187.4 C135.2,187.4 141.4,182 142.3,171.2 L141.5,171.2 C140.7,181.4 135.1,185.3 132.8,185.3 C131,185.3 129.3,184.2 129.3,180.9 C129.3,173.8 138,148.9 138,142.1 L138,142.1 Z M190.4,133.3 C185.6,133.3 182.7,138.2 182.7,142.5 C182.7,147 185.6,149.6 189.2,149.6 C191.9,149.6 195.1,148.1 197.5,144.7 C197,163 181.4,185.5 170.9,185.5 C168.1,185.5 167.4,183.6 167.4,179.9 C167.4,172.5 177,152 177,143.2 C177,135.9 172,133.2 166.4,133.2 C160.5,133.2 154.7,135.9 152.5,139.3 L153.4,139.3 C154.3,137.8 158.4,134.8 161.5,134.8 C163.4,134.8 164.5,135.7 164.5,138.4 C164.5,148.3 154.9,166.8 154.9,176.3 C154.9,184.3 160.9,187.2 169.3,187.2 C180,187.2 198.6,166.4 198.6,143 C198.6,138.1 195.4,133.3 190.4,133.3 L190.4,133.3 Z M233.6,141.8 C233.6,134.5 228.6,131.8 223,131.8 C216.7,131.8 211.3,134.7 209.1,137.9 L210,137.9 C211.8,135.5 215.7,133.4 218.1,133.4 C220,133.4 221.1,134.3 221.1,137 C221.1,146.5 213.5,166.8 213.5,176.3 C213.5,183 218.2,187.2 224.6,187.2 C231.2,187.2 237.3,181.8 238.7,171.2 L237.8,171.3 C237.2,180.5 230.4,185.8 228.1,185.8 C226.3,185.8 225,184.3 225,180.6 C225,172.5 233.6,150.6 233.6,141.8 L233.6,141.8 Z M233.2,109.4 C227.8,109.4 225,114.2 225,118.6 C225,123 228.1,125.8 231.8,125.8 C236.5,125.8 239.6,121.4 239.6,116.9 C239.6,113.1 237,109.4 233.2,109.4 L233.2,109.4 Z M248.6,138.8 L255.3,138.8 C252.1,153.5 247.9,173.3 247.9,176.9 C247.9,183.9 253,187.2 258.4,187.2 C267.6,187.2 273.4,182.2 274.5,171.2 L273.6,171.2 C272.7,181.4 266.6,185.1 263.6,185.1 C262.2,185.1 260.1,184.4 260.1,181.7 C260.1,177.7 264.8,156.3 268.7,138.8 L279.8,138.8 L280.1,137.8 L268.9,137.8 C271,128.4 272.9,120.2 273.6,116.8 L272.8,116.8 L272,120.3 C271.1,124.2 268.2,125.8 265.3,125.8 C263.2,125.8 260.8,125.3 258.5,124.3 L255.5,137.8 L248.9,137.8 L248.6,138.8 Z M316,132.1 C281,132.1 273.2,187.2 302.4,187.2 C313.5,187.2 321.8,182.5 326.7,170 L325.9,170 C321.4,180.2 316.5,183.3 310.9,183.3 C302.6,183.3 298.8,175.9 298.3,166.8 C317.6,165.1 327.7,152.3 327.7,142.7 C327.7,136.8 323.9,132.1 316,132.1 L316,132.1 Z M317.1,133.3 C323.5,133.3 326.7,137.3 326.7,142.5 C326.7,151.5 317.1,164.2 298.2,165.9 C297.8,151.5 305.5,133.3 317.1,133.3 L317.1,133.3 Z" id="invite"></path>
                        <path d="M164.638444,82.407997 L125.20101,42.9705627 L125.254594,42.9169787 C116.483892,32.7020115 116.937435,17.293012 126.615224,7.61522369 C136.293012,-2.06256464 151.702012,-2.51610782 161.916979,6.25459416 L161.970563,6.20101013 L166.874858,11.1053054 L171.679455,6.43071786 L171.733039,6.48430189 C181.948006,-2.28640009 197.357006,-1.83285691 207.034794,7.84493142 C216.712583,17.5227197 217.166126,32.9317192 208.395424,43.1466864 L208.449008,43.2002705 L166.729708,84.9195706 L164.638444,82.407997 Z" id="Oval-17"></path>
                    </g>
                </g>
            </g>
        </g>
    </g>
</svg>