<?xml version="1.0" encoding="UTF-8" standalone="no"?>
<svg width="391px" height="99px" viewBox="0 0 391 99" version="1.1" xmlns="http://www.w3.org/2000/svg" xmlns:xlink="http://www.w3.org/1999/xlink" xmlns:sketch="http://www.bohemiancoding.com/sketch/ns">
    <!-- Generator: Sketch 3.5.1 (25234) - http://www.bohemiancoding.com/sketch -->
    <title>Artboard 5</title>
    <desc>Created with Sketch.</desc>
    <defs>
        <path id="path-1" d="M420.899783,896.814588 C420.899783,896.814588 421.631933,893.712845 419.553551,890.791502 C417.475169,887.870158 415.694923,885.152629 418.297353,883.554102 C420.899783,881.955574 423.515624,884.696519 423.515624,884.696519 C423.515624,884.696519 425.560807,881.251787 428.489077,882.149166 C431.417347,883.046544 431.106678,886.602618 428.489077,889.426406 C425.871476,892.250195 420.899783,896.814588 420.899783,896.814588 Z"></path>
    </defs>
    <g id="Welcome" stroke="none" stroke-width="1" fill="none" fill-rule="evenodd" sketch:type="MSPage">
        <g id="Artboard-5" sketch:type="MSArtboardGroup" transform="translate(-307.000000, -878.000000)">
            <g id="Chris-&amp;-Angel-+-JUNE-18,-2016" sketch:type="MSLayerGroup" transform="translate(313.000000, 884.000000)" fill="#FFFFFF">
                <path d="M115.160251,48.3799678 C115.009884,48.559326 114.858486,48.7321492 114.706055,48.8984375 C113.828772,49.8554735 112.928716,50.6302054 112.005859,51.2226562 C111.083003,51.8151071 110.188644,52.2708317 109.322754,52.5898438 C108.456864,52.9088558 107.630863,53.125325 106.844727,53.2392578 C106.05859,53.3531907 105.357913,53.4101562 104.742676,53.4101562 C103.694493,53.4101562 102.714686,53.2506526 101.803223,52.9316406 C100.89176,52.6126286 100.099938,52.1113315 99.4277344,51.4277344 C98.7555305,50.7441372 98.2257506,49.8782604 97.8383789,48.8300781 C97.4510072,47.7818958 97.2573242,46.51726 97.2573242,45.0361328 C97.2573242,44.3981088 97.3028967,43.6974322 97.394043,42.934082 C97.4851893,42.1707319 97.6219066,41.344731 97.8041992,40.4560547 L102.555176,18 L112.638184,18 L107.61377,41.7890625 C107.499837,42.1764342 107.425781,42.5581036 107.391602,42.934082 C107.357422,43.3100605 107.340332,43.6803367 107.340332,44.0449219 C107.340332,45.0247445 107.568194,45.7026348 108.023926,46.0786133 C108.479657,46.4545917 109.197423,46.6425781 110.177246,46.6425781 C110.860843,46.6425781 111.527341,46.4887711 112.176758,46.1811523 C112.826175,45.8735336 113.424314,45.4462918 113.971191,44.8994141 C114.064459,44.8061463 114.15607,44.7097307 114.246023,44.6101671 C114.245094,44.5584841 114.244629,44.5067878 114.244629,44.4550781 C114.244629,43.6347615 114.352864,42.8771194 114.569336,42.1821289 C114.785808,41.4871385 115.06494,40.8662137 115.406738,40.3193359 C115.748537,39.7724582 116.141599,39.2996439 116.585938,38.9008789 C117.030276,38.5021139 117.491697,38.1888032 117.970215,37.9609375 C119.92986,34.4518054 121.581862,30.9826018 122.92627,27.5532227 C124.270677,24.1238435 125.489741,20.6774262 126.583496,17.2138672 L136.939941,15.8466797 C137.076661,18.8772938 137.207682,21.5034069 137.333008,23.7250977 C137.458334,25.9467885 137.577962,27.8722249 137.691895,29.5014648 C137.805827,31.1307048 137.908365,32.5149683 137.999512,33.6542969 C138.090658,34.7936255 138.176106,35.8019162 138.255859,36.6791992 C138.335612,37.5564823 138.392578,38.3540003 138.426758,39.0717773 C138.460938,39.7895544 138.478027,40.5358034 138.478027,41.3105469 C138.478027,42.8372472 138.267255,44.1987245 137.845703,45.3950195 C137.424152,46.5913146 136.854496,47.6337846 136.136719,48.5224609 C135.418942,49.4111373 134.587244,50.1687794 133.641602,50.7954102 C132.695959,51.4220409 131.704758,51.9290345 130.667969,52.3164062 C129.63118,52.703778 128.577317,52.9829093 127.506348,53.1538086 C126.435379,53.3247079 125.421392,53.4101562 124.464355,53.4101562 C122.709789,53.4101562 121.188809,53.142418 119.901367,52.6069336 C118.613926,52.0714491 117.54867,51.3764691 116.705566,50.5219727 C116.060336,49.8680233 115.545234,49.154026 115.160251,48.3799678 Z M71.4693273,40.4972756 C71.1100758,41.3927791 70.7453036,42.2164332 70.375,42.9682617 C69.9990216,43.7316119 69.5831729,44.386716 69.1274414,44.9335938 C68.67171,45.4804715 68.1590198,45.9020167 67.5893555,46.1982422 C67.0196912,46.4944676 66.3588905,46.6425781 65.6069336,46.6425781 C64.5359647,46.6425781 63.8011088,46.3691434 63.4023438,45.8222656 C63.0035787,45.2753879 62.8041992,44.5690147 62.8041992,43.703125 C62.8041992,43.0423144 62.8896476,42.2732791 63.0605469,41.3959961 C63.2314462,40.5187131 63.4422188,39.5673879 63.6928711,38.5419922 C63.9435234,37.5165964 64.2112616,36.4456436 64.4960938,35.3291016 C64.7809259,34.2125595 65.0486641,33.0903377 65.2993164,31.9624023 C65.5499687,30.834467 65.7607413,29.7293348 65.9316406,28.6469727 C66.1025399,27.5646105 66.1879883,26.5563198 66.1879883,25.6220703 C66.1879883,24.2320894 65.9943053,23.0358123 65.6069336,22.0332031 C65.2195619,21.0305939 64.6783889,20.2102896 63.9833984,19.5722656 C63.288408,18.9342416 62.4624071,18.4671239 61.5053711,18.1708984 C60.5483351,17.874673 59.5115616,17.7265625 58.3950195,17.7265625 C57.8481418,17.7265625 57.2613964,17.772135 56.6347656,17.8632812 C56.0081349,17.9544275 55.3416376,18.1367174 54.6352539,18.4101562 C53.9288702,18.6835951 53.2054073,19.0766576 52.4648438,19.5893555 C51.7242802,20.1020533 50.9780311,20.7799437 50.2260742,21.6230469 L53.9858398,3.98632812 L43.6293945,5.38769531 L36.0959656,40.7212527 C34.5046957,42.7717794 32.5952828,44.3809565 30.3676758,45.5488281 C28.0206588,46.779303 25.468601,47.3945312 22.7114258,47.3945312 C21.0024329,47.3945312 19.6067762,47.126793 18.5244141,46.5913086 C17.4420519,46.0558241 16.5875682,45.3095751 15.9609375,44.3525391 C15.3343068,43.395503 14.9013684,42.2504949 14.6621094,40.9174805 C14.4228504,39.584466 14.3032227,38.1090576 14.3032227,36.4912109 C14.3032227,34.1214074 14.4855125,31.6604945 14.8500977,29.1083984 C15.2146828,26.5563023 15.7159799,24.0726032 16.3540039,21.6572266 C16.9920279,19.2418499 17.7610632,16.9518337 18.6611328,14.7871094 C19.5612024,12.622385 20.5524034,10.7254313 21.6347656,9.09619141 C22.7171278,7.46695149 23.8678324,6.17383291 25.0869141,5.21679688 C26.3059957,4.25976084 27.5649349,3.78125 28.8637695,3.78125 C29.638513,3.78125 30.2993137,3.90087771 30.8461914,4.14013672 C31.3930691,4.37939573 31.8374006,4.6927064 32.1791992,5.08007812 C32.5209978,5.46744985 32.7659498,5.92317446 32.9140625,6.44726562 C33.0621752,6.97135679 33.1362305,7.5068332 33.1362305,8.05371094 C33.1362305,8.73730811 33.0450855,9.42089502 32.862793,10.1044922 C32.6805004,10.7880894 32.441245,11.4204073 32.1450195,12.0014648 C31.8487941,12.5825224 31.5070006,13.0952126 31.1196289,13.5395508 C30.7322572,13.9838889 30.3334981,14.3085927 29.9233398,14.5136719 C30.5841504,15.3112019 31.2734339,15.812499 31.9912109,16.0175781 C32.708988,16.2226573 33.3413059,16.3251953 33.8881836,16.3251953 C34.7768599,16.3251953 35.5345021,16.1656917 36.1611328,15.8466797 C36.7877635,15.5276677 37.3004537,15.0776396 37.6992188,14.496582 C38.0979838,13.9155244 38.3828116,13.2319375 38.5537109,12.4458008 C38.7246102,11.659664 38.8100586,10.7994838 38.8100586,9.86523438 C38.8100586,8.2018146 38.508141,6.7776752 37.9042969,5.59277344 C37.3004527,4.40787168 36.4687553,3.43945688 35.4091797,2.6875 C34.3496041,1.93554312 33.1077545,1.38297703 31.6835938,1.02978516 C30.259433,0.676593286 28.7384521,0.5 27.1206055,0.5 C24.8191617,0.5 22.7114354,0.847490015 20.7973633,1.54248047 C18.8832912,2.23747092 17.1401446,3.18879604 15.5678711,4.39648438 C13.9955976,5.60417271 12.5828513,7.02831211 11.3295898,8.66894531 C10.0763284,10.3095785 8.97119619,12.0698148 8.01416016,13.949707 C7.05712412,15.8295992 6.24251638,17.7835185 5.5703125,19.8115234 C4.89810862,21.8395284 4.34554253,23.8561098 3.91259766,25.8613281 C3.47965278,27.8665465 3.16634211,29.8090726 2.97265625,31.6889648 C2.77897039,33.5688571 2.68212891,35.3063071 2.68212891,36.9013672 C2.68212891,40.0459142 2.99543958,42.7119031 3.62207031,44.8994141 C4.24870105,47.086925 5.19432961,48.864251 6.45898438,50.2314453 C7.72363914,51.5986396 9.31297871,52.5898407 11.2270508,53.2050781 C13.1411229,53.8203156 15.3969597,54.1279297 17.9946289,54.1279297 C19.6124755,54.1279297 21.384105,53.8886743 23.3095703,53.4101562 C25.2350357,52.9316382 27.1262928,52.1739961 28.9833984,51.137207 C30.8405041,50.100418 32.566561,48.7560304 34.1616211,47.1040039 C34.4206501,46.8357239 34.6709652,46.5582805 34.9125664,46.2716735 L33.4780273,53 L43.5610352,53 L48.3120117,30.5439453 C48.5854506,29.655269 48.9044578,28.817875 49.269043,28.0317383 C49.6336281,27.2456015 50.0437803,26.5620146 50.4995117,25.980957 C50.9552432,25.3998994 51.4565402,24.9384783 52.003418,24.5966797 C52.5502957,24.2548811 53.1427377,24.0839844 53.7807617,24.0839844 C55.4669681,24.0839844 56.3100586,25.2802615 56.3100586,27.6728516 C56.3100586,28.7893936 56.1448584,30.1223881 55.8144531,31.671875 C55.4840478,33.2213619 55.1251647,34.8277912 54.737793,36.4912109 C54.3504212,38.1546307 53.9915381,39.7781496 53.6611328,41.3618164 C53.3307275,42.9454832 53.1655273,44.3297467 53.1655273,45.5146484 C53.1655273,46.5172576 53.3079413,47.491369 53.5927734,48.4370117 C53.8776056,49.3826545 54.3390268,50.225745 54.9770508,50.9663086 C55.6150748,51.7068722 56.4581653,52.2993142 57.5063477,52.7436523 C58.55453,53.1879905 59.8533451,53.4101562 61.402832,53.4101562 C62.3370815,53.4101562 63.3567653,53.2734389 64.4619141,53 C65.5670628,52.7265611 66.6949812,52.1398157 67.8457031,51.2397461 C68.4121819,50.7966587 68.9758955,50.2555585 69.536848,49.6164408 L68.8198242,53 L78.902832,53 L84.5083008,26.4082031 C85.3741905,25.6106731 86.1717086,24.9669621 86.9008789,24.4770508 C87.6300492,23.9871395 88.5301053,23.7421875 89.6010742,23.7421875 C89.9428728,23.7421875 90.1878248,23.8561187 90.3359375,24.0839844 C90.4840502,24.3118501 90.6036779,24.596678 90.6948242,24.9384766 C90.7859705,25.2802751 90.8714189,25.6505514 90.9511719,26.0493164 C91.0309249,26.4480814 91.1619457,26.8183577 91.3442383,27.1601562 C91.5265309,27.5019548 91.7942691,27.7867827 92.1474609,28.0146484 C92.5006528,28.2425142 93.0076464,28.3564453 93.668457,28.3564453 C94.5115602,28.3564453 95.2521127,28.2026383 95.8901367,27.8950195 C96.5281607,27.5874008 97.0579406,27.1943383 97.4794922,26.7158203 C97.9010438,26.2373023 98.2143544,25.6961293 98.4194336,25.0922852 C98.6245127,24.488441 98.7270508,23.8789093 98.7270508,23.2636719 C98.7270508,22.5800747 98.6245127,21.919274 98.4194336,21.28125 C98.2143544,20.643226 97.9067403,20.0849633 97.496582,19.6064453 C97.0864237,19.1279273 96.5794301,18.7405614 95.9755859,18.4443359 C95.3717418,18.1481105 94.6710652,18 93.8735352,18 C93.030432,18 92.2329139,18.1253243 91.480957,18.3759766 C90.7290001,18.6266289 90.0055373,18.9513326 89.3105469,19.3500977 C88.6155564,19.7488627 87.9490592,20.2102838 87.3110352,20.734375 C86.6730111,21.2584662 86.0463898,21.7939426 85.4311523,22.3408203 L86.3198242,18 L76.2368164,18 L71.4693273,40.4972758 Z M117.970215,42.9853516 C117.970215,44.6259848 118.294919,45.8507447 118.944336,46.659668 C119.593753,47.4685913 120.693189,47.8730469 122.242676,47.8730469 C123.017419,47.8730469 123.769365,47.7648123 124.498535,47.5483398 C125.227705,47.3318674 125.877113,46.9672877 126.446777,46.4545898 C127.016442,45.941892 127.472166,45.2753947 127.813965,44.4550781 C128.155763,43.6347615 128.32666,42.6093812 128.32666,41.3789062 C128.32666,40.7864554 128.30957,40.2111031 128.275391,39.652832 C128.241211,39.094561 128.201335,38.502119 128.155762,37.8754883 C128.110189,37.2488575 128.047526,36.548181 127.967773,35.7734375 C127.88802,34.998694 127.796876,34.0986379 127.694336,33.0732422 C127.591796,32.0478464 127.483562,30.8629625 127.369629,29.5185547 C127.255696,28.1741469 127.130372,26.601897 126.993652,24.8017578 C126.287269,27.080415 125.455571,29.2906794 124.498535,31.4326172 C123.541499,33.574555 122.481939,35.7734262 121.319824,38.0292969 C121.775556,38.2799492 122.157225,38.5989564 122.464844,38.9863281 C122.772462,39.3736999 122.92627,39.8636038 122.92627,40.4560547 C122.92627,40.8889996 122.857911,41.3105448 122.721191,41.7207031 C122.584472,42.1308614 122.379396,42.5011377 122.105957,42.831543 C121.832518,43.1619483 121.507814,43.4239899 121.131836,43.6176758 C120.755857,43.8113616 120.328616,43.9082031 119.850098,43.9082031 C119.462726,43.9082031 119.098146,43.8512375 118.756348,43.7373047 C118.414549,43.6233718 118.152507,43.3727233 117.970215,42.9853516 L117.970215,42.9853516 Z M193.507324,33.9277344 C192.983233,34.0644538 192.493329,34.1612953 192.037598,34.2182617 C191.581866,34.2752281 191.126142,34.3151041 190.67041,34.3378906 C190.328612,37.3457182 189.559576,40.0743693 188.363281,42.5239258 C187.166986,44.9734823 185.628916,47.0698155 183.749023,48.8129883 C181.869131,50.5561611 179.681653,51.9005487 177.186523,52.8461914 C174.691394,53.7918342 171.974136,54.2646484 169.034668,54.2646484 C166.82437,54.2646484 164.841968,53.9798206 163.087402,53.4101562 C161.332836,52.8404919 159.840338,52.0144911 158.609863,50.9321289 C157.379388,49.8497667 156.43376,48.5395585 155.772949,47.0014648 C155.112139,45.4633712 154.781738,43.7259211 154.781738,41.7890625 C154.781738,39.8294173 155.117835,37.8982843 155.790039,35.9956055 C156.462243,34.0929267 157.385085,32.3383869 158.558594,30.7319336 C159.732102,29.1254802 161.104973,27.7241271 162.677246,26.527832 C164.24952,25.331537 165.935701,24.4713568 167.73584,23.9472656 L167.73584,23.6738281 C166.983883,23.0585907 166.357262,22.4376659 165.855957,21.8110352 C165.354652,21.1844044 164.9445,20.5179072 164.625488,19.8115234 C164.306476,19.1051397 164.078614,18.341801 163.941895,17.5214844 C163.805175,16.7011678 163.736816,15.7897186 163.736816,14.7871094 C163.736816,12.8730373 164.141272,11.0444423 164.950195,9.30126953 C165.759119,7.55809675 166.858554,6.02572275 168.248535,4.70410156 C169.638516,3.38248037 171.262035,2.32861721 173.119141,1.54248047 C174.976246,0.756343726 176.952952,0.36328125 179.049316,0.36328125 C180.644376,0.36328125 182.114088,0.60253667 183.458496,1.08105469 C184.802904,1.55957271 185.959305,2.2317665 186.927734,3.09765625 C187.896164,3.963546 188.648109,4.98892637 189.183594,6.17382812 C189.719078,7.35872988 189.986816,8.6461519 189.986816,10.0361328 C189.986816,10.9931688 189.855796,11.8704387 189.59375,12.6679688 C189.331704,13.4654988 188.967125,14.1490857 188.5,14.71875 C188.032875,15.2884143 187.468916,15.7327458 186.808105,16.0517578 C186.147295,16.3707698 185.429529,16.5302734 184.654785,16.5302734 C183.788895,16.5302734 182.991377,16.342287 182.262207,15.9663086 C181.533037,15.5903302 180.906415,15.0605503 180.382324,14.3769531 C181.225427,13.852862 181.914711,13.0553439 182.450195,11.984375 C182.98568,10.9134061 183.253418,9.77409458 183.253418,8.56640625 C183.253418,7.26757163 182.928714,6.24219126 182.279297,5.49023438 C181.62988,4.73827749 180.746913,4.36230469 179.630371,4.36230469 C178.673335,4.36230469 177.761886,4.63573945 176.895996,5.18261719 C176.030106,5.72949492 175.266768,6.47004741 174.605957,7.40429688 C173.945146,8.33854634 173.415367,9.41519573 173.016602,10.6342773 C172.617837,11.853359 172.418457,13.1236913 172.418457,14.4453125 C172.418457,16.7923294 173.045078,18.7633384 174.29834,20.3583984 C175.551601,21.9534585 177.283355,23.0358044 179.493652,23.6054688 L179.493652,23.8789062 C177.807446,24.1979183 176.206713,24.8644155 174.691406,25.878418 C173.176099,26.8924204 171.843105,28.13427 170.692383,29.6040039 C169.541661,31.0737378 168.630212,32.6915602 167.958008,34.4575195 C167.285804,36.2234789 166.949707,38.0178945 166.949707,39.8408203 C166.949707,42.256197 167.559239,44.1417575 168.77832,45.4975586 C169.997402,46.8533596 171.677886,47.53125 173.819824,47.53125 C175.346525,47.53125 176.856112,47.2122428 178.348633,46.5742188 C179.841153,45.9361947 181.208327,45.0361386 182.450195,43.8740234 C183.692064,42.7119083 184.768713,41.3219482 185.680176,39.7041016 C186.591639,38.0862549 187.21826,36.2975358 187.560059,34.3378906 C187.035967,34.3606772 186.517581,34.4005531 186.004883,34.4575195 C185.492185,34.514486 184.939619,34.6227206 184.347168,34.7822266 C183.116693,35.2151714 182.022954,35.7563444 181.065918,36.4057617 C180.108882,37.055179 179.368329,37.7672487 178.844238,38.5419922 L178.67334,38.5761719 C178.354328,38.1888001 178.092286,37.7843446 177.887207,37.362793 C177.682128,36.9412414 177.511231,36.5139996 177.374512,36.0810547 C177.078286,35.0556589 177.021321,34.0815476 177.203613,33.1586914 C177.385906,32.2358352 177.744789,31.3927447 178.280273,30.6293945 C178.815758,29.8660444 179.493648,29.1995471 180.313965,28.6298828 C181.134281,28.0602185 182.022944,27.615887 182.97998,27.296875 C183.731937,27.0690093 184.512366,26.9038091 185.321289,26.8012695 C186.130212,26.69873 186.933427,26.6132816 187.730957,26.5449219 C188.528487,26.4765622 189.320309,26.4082035 190.106445,26.3398438 C190.892582,26.271484 191.638831,26.1575529 192.345215,25.9980469 C192.892093,25.8157543 193.456052,25.5764989 194.037109,25.2802734 C194.618167,24.984048 195.165036,24.6536477 195.677734,24.2890625 C196.190432,23.9244773 196.65755,23.5542011 197.079102,23.1782227 C197.500653,22.8022442 197.83675,22.431968 198.087402,22.0673828 L198.258301,22.0673828 C198.645673,22.4547545 198.958983,22.8649067 199.198242,23.2978516 C199.437501,23.7307964 199.625488,24.1751279 199.762207,24.6308594 C200.058432,25.610682 200.092612,26.5847933 199.864746,27.5532227 C199.63688,28.521652 199.226728,29.4217081 198.634277,30.253418 C198.041826,31.0851279 197.301274,31.8199838 196.412598,32.4580078 C195.523921,33.0960318 194.555507,33.5859358 193.507324,33.9277344 L193.507324,33.9277344 Z M244.093262,53 L249.459473,27.6044922 C247.68212,26.7841756 246.058601,26.1917336 244.588867,25.8271484 C243.119133,25.4625633 241.620939,25.2119147 240.094238,25.0751953 C238.772617,27.9235168 237.55925,30.8515475 236.454102,33.859375 C235.348953,36.8672025 234.391931,39.7895366 233.583008,42.6264648 C232.774084,45.4633931 232.141767,48.1236855 231.686035,50.6074219 C231.230304,53.0911583 231.002441,55.244457 231.002441,57.0673828 C231.002441,58.1839249 231.099283,59.0327119 231.292969,59.6137695 C231.486655,60.1948271 231.70882,60.6448552 231.959473,60.9638672 C231.025223,60.9638672 230.016932,60.9182947 228.93457,60.8271484 C227.852208,60.7360021 226.838221,60.4568708 225.892578,59.9897461 C224.946935,59.5226214 224.16081,58.7877654 223.53418,57.7851562 C222.907549,56.7825471 222.594238,55.3698008 222.594238,53.546875 C222.594238,51.9973881 222.83919,50.1403103 223.329102,47.9755859 C223.819013,45.8108616 224.519689,43.4809695 225.431152,40.9858398 C226.342615,38.4907102 227.424961,35.8816868 228.678223,33.1586914 C229.931484,30.435696 231.332837,27.7412243 232.882324,25.0751953 C230.672027,25.2119147 228.866218,25.5480116 227.464844,26.0834961 C226.06347,26.6189805 225.134931,27.4905539 224.679199,28.6982422 C224.861492,28.6982422 225.060871,28.931801 225.277344,29.3989258 C225.493816,29.8660505 225.602051,30.361651 225.602051,30.8857422 C225.602051,31.7288454 225.220381,32.3953426 224.457031,32.8852539 C223.693681,33.3751652 222.765142,33.6201172 221.671387,33.6201172 C221.056149,33.6201172 220.486494,33.5346688 219.962402,33.3637695 C219.438311,33.1928702 218.982587,32.9422217 218.595215,32.6118164 C218.207843,32.2814111 217.900229,31.8598658 217.672363,31.347168 C217.444498,30.8344701 217.330566,30.2363315 217.330566,29.5527344 C217.330566,28.3678326 217.68945,27.2513073 218.407227,26.203125 C219.125004,25.1549427 220.121901,24.2434935 221.397949,23.46875 C222.673997,22.6940065 224.183585,22.0787783 225.926758,21.6230469 C227.669931,21.1673154 229.566884,20.9394531 231.617676,20.9394531 C232.574712,20.9394531 233.793775,21.0078118 235.274902,21.1445312 C237.052255,18.3417829 238.932119,15.6928836 240.914551,13.1977539 C242.896983,10.7026242 244.93635,8.51514612 247.032715,6.63525391 C249.129079,4.75536169 251.236806,3.2628636 253.355957,2.15771484 C255.475108,1.05256609 257.560048,0.5 259.61084,0.5 C260.431156,0.5 261.348302,0.568358691 262.362305,0.705078125 C263.376307,0.841797559 264.304846,1.10383921 265.147949,1.49121094 L254.17627,53 L244.093262,53 Z M333.380398,42.9617687 C333.37387,42.7454648 333.370605,42.5254612 333.370605,42.3017578 C333.370605,40.95735 333.507323,39.4078864 333.780762,37.6533203 C334.054201,35.8987542 334.487139,34.098642 335.07959,32.2529297 C335.672041,30.4072173 336.458166,28.595712 337.437988,26.8183594 C338.417811,25.0410067 339.602695,23.4516672 340.992676,22.050293 C342.382657,20.6489188 344.011872,19.5210004 345.880371,18.6665039 C347.74887,17.8120074 349.879383,17.3847656 352.271973,17.3847656 C353.844246,17.3847656 355.125972,17.572752 356.117188,17.9487305 C357.108403,18.3247089 357.894528,18.8203094 358.475586,19.4355469 C359.056644,20.0507843 359.455403,20.762854 359.671875,21.5717773 C359.888347,22.3807007 359.996582,23.2180946 359.996582,24.0839844 C359.996582,26.1119893 359.552251,27.9975499 358.663574,29.7407227 C357.774898,31.4838954 356.584317,33.0048763 355.091797,34.3037109 C353.599276,35.6025456 351.884613,36.6507122 349.947754,37.4482422 C348.010895,38.2457722 345.994314,38.7128899 343.897949,38.8496094 C343.852376,39.3737005 343.8125,39.869301 343.77832,40.3364258 C343.74414,40.8035505 343.727051,41.2421854 343.727051,41.6523438 C343.727051,42.8372455 343.835285,43.8113569 344.051758,44.574707 C344.26823,45.3380572 344.587237,45.9361958 345.008789,46.3691406 C345.430341,46.8020855 345.954424,47.1040031 346.581055,47.2749023 C347.207685,47.4458016 347.942541,47.53125 348.785645,47.53125 C350.175625,47.53125 351.434565,47.3489602 352.5625,46.984375 C353.690435,46.6197898 354.744298,46.1184928 355.724121,45.4804688 C356.703944,44.8424447 357.632483,44.0904991 358.509766,43.2246094 C359.317842,42.4270273 360.130741,41.5811239 360.948482,40.6868775 C360.972096,40.5655786 360.996592,40.4430647 361.021973,40.3193359 L368.507324,5.25097656 L378.86377,3.84960938 L370.831543,41.6523438 C370.71761,42.0397155 370.637858,42.3985986 370.592285,42.7290039 C370.546712,43.0594092 370.523926,43.384113 370.523926,43.703125 C370.523926,44.500655 370.729002,45.1671523 371.13916,45.7026367 C371.549318,46.2381212 372.301264,46.5058594 373.39502,46.5058594 C374.05583,46.5058594 374.534341,46.4602869 374.830566,46.3691406 C375.126792,46.2779943 375.400227,46.1754563 375.650879,46.0615234 C375.559733,47.3147849 375.280601,48.4028274 374.813477,49.3256836 C374.346352,50.2485398 373.759606,51.0118785 373.053223,51.6157227 C372.346839,52.2195668 371.549321,52.6695949 370.660645,52.9658203 C369.771968,53.2620458 368.871912,53.4101562 367.960449,53.4101562 C366.912267,53.4101562 365.932459,53.2449561 365.020996,52.9145508 C364.109533,52.5841455 363.317712,52.0714553 362.645508,51.3764648 C361.973304,50.6814744 361.443524,49.798508 361.056152,48.7275391 C360.670161,47.6603859 360.47648,46.3783192 360.475105,44.8813007 C360.37911,45.0015426 360.282265,45.1215127 360.18457,45.2412109 C358.919916,46.7906979 357.495776,48.1692648 355.912109,49.3769531 C354.328443,50.5846415 352.573903,51.5587528 350.648438,52.2993164 C348.722972,53.03988 346.609549,53.4101562 344.308105,53.4101562 C342.644686,53.4101562 341.140794,53.1993836 339.796387,52.777832 C338.451979,52.3562804 337.301274,51.7011763 336.344238,50.8125 C335.387202,49.9238237 334.652346,48.7788156 334.139648,47.3774414 C334.121622,47.328168 334.103912,47.2785354 334.086519,47.2285437 C333.305412,48.350126 332.485725,49.2998176 331.627441,50.0776367 C330.533686,51.0688526 329.405768,51.8264948 328.243652,52.3505859 C327.081537,52.8746771 325.953619,53.2734361 324.859863,53.546875 L323.800293,58.6054688 C323.298988,61.1119917 322.575526,63.1399662 321.629883,64.6894531 C320.68424,66.23894 319.630377,67.4466103 318.468262,68.3125 C317.306147,69.1783897 316.09278,69.7594386 314.828125,70.0556641 C313.56347,70.3518895 312.350103,70.5 311.187988,70.5 C310.117019,70.5 309.108729,70.3575861 308.163086,70.0727539 C307.217443,69.7879218 306.391442,69.3663765 305.685059,68.8081055 C304.978675,68.2498344 304.414716,67.5434613 303.993164,66.6889648 C303.571612,65.8344684 303.36084,64.8375708 303.36084,63.6982422 C303.36084,62.2399016 303.70833,60.9524795 304.40332,59.8359375 C305.098311,58.7193955 305.99267,57.7452841 307.086426,56.9135742 C308.180181,56.0818643 309.404941,55.3697946 310.760742,54.7773438 C312.116543,54.1848929 313.455234,53.6835958 314.776855,53.2734375 L315.631348,49.5820312 C314.605952,50.6757867 313.403978,51.5872359 312.025391,52.3164062 C310.646803,53.0455766 309.04607,53.4101562 307.223145,53.4101562 C306.015456,53.4101562 304.853358,53.2164733 303.736816,52.8291016 C302.620274,52.4417298 301.629073,51.8037154 300.763184,50.9150391 C299.897294,50.0263627 299.202314,48.864265 298.678223,47.4287109 C298.660008,47.378818 298.642109,47.3285397 298.624528,47.2778761 C298.613949,47.2940259 298.603365,47.3101245 298.592773,47.3261719 C297.464838,49.0351648 296.325527,50.3396765 295.174805,51.2397461 C294.024083,52.1398157 292.896164,52.7265611 291.791016,53 C290.685867,53.2734389 289.666183,53.4101562 288.731934,53.4101562 C287.182447,53.4101562 285.883632,53.1879905 284.835449,52.7436523 C283.787267,52.2993142 282.944176,51.7068722 282.306152,50.9663086 C281.668128,50.225745 281.206707,49.3826545 280.921875,48.4370117 C280.637043,47.491369 280.494629,46.5172576 280.494629,45.5146484 C280.494629,44.3297467 280.659829,42.9454832 280.990234,41.3618164 C281.32064,39.7781496 281.679523,38.1546307 282.066895,36.4912109 C282.454266,34.8277912 282.813149,33.2213619 283.143555,31.671875 C283.47396,30.1223881 283.63916,28.7893936 283.63916,27.6728516 C283.63916,25.2802615 282.79607,24.0839844 281.109863,24.0839844 C280.471839,24.0839844 279.879397,24.2548811 279.33252,24.5966797 C278.785642,24.9384783 278.284345,25.3998994 277.828613,25.980957 C277.372882,26.5620146 276.96273,27.2456015 276.598145,28.0317383 C276.233559,28.817875 275.914552,29.655269 275.641113,30.5439453 L270.890137,53 L260.807129,53 L268.224121,18 L278.307129,18 L277.555176,21.6230469 C278.307133,20.7799437 279.053382,20.1020533 279.793945,19.5893555 C280.534509,19.0766576 281.257972,18.6835951 281.964355,18.4101562 C282.670739,18.1367174 283.337236,17.9544275 283.963867,17.8632812 C284.590498,17.772135 285.177243,17.7265625 285.724121,17.7265625 C286.840663,17.7265625 287.877437,17.874673 288.834473,18.1708984 C289.791509,18.4671239 290.61751,18.9342416 291.3125,19.5722656 C292.00749,20.2102896 292.548663,21.0305939 292.936035,22.0332031 C293.323407,23.0358123 293.51709,24.2320894 293.51709,25.6220703 C293.51709,26.5563198 293.431641,27.5646105 293.260742,28.6469727 C293.089843,29.7293348 292.87907,30.834467 292.628418,31.9624023 C292.377766,33.0903377 292.110027,34.2125595 291.825195,35.3291016 C291.540363,36.4456436 291.272625,37.5165964 291.021973,38.5419922 C290.77132,39.5673879 290.560548,40.5187131 290.389648,41.3959961 C290.218749,42.2732791 290.133301,43.0423144 290.133301,43.703125 C290.133301,44.5690147 290.33268,45.2753879 290.731445,45.8222656 C291.13021,46.3691434 291.865066,46.6425781 292.936035,46.6425781 C293.687992,46.6425781 294.348793,46.4944676 294.918457,46.1982422 C295.488121,45.9020167 296.000812,45.4804715 296.456543,44.9335938 C296.912274,44.386716 297.328123,43.7316119 297.704102,42.9682617 C297.768075,42.8383762 297.831883,42.706347 297.895527,42.572174 C297.893235,42.4378571 297.89209,42.3021455 297.89209,42.1650391 C297.89209,40.569979 298.051593,38.8610117 298.370605,37.0380859 C298.689617,35.2151602 299.179521,33.3922617 299.840332,31.5693359 C300.501143,29.7464102 301.327143,27.997567 302.318359,26.3227539 C303.309575,24.6479408 304.471673,23.1668359 305.804688,21.8793945 C307.137702,20.5919532 308.64729,19.5665728 310.333496,18.8032227 C312.019702,18.0398725 313.87678,17.6582031 315.904785,17.6582031 C317.887217,17.6582031 319.328446,17.9999966 320.228516,18.6835938 C321.128585,19.3671909 321.578613,20.2102814 321.578613,21.2128906 L321.578613,21.6230469 L322.330566,18 L332.413574,18 L325.475098,50.4707031 C326.546067,50.106118 327.514481,49.667483 328.380371,49.1547852 C329.246261,48.6420873 330.038082,47.9926797 330.755859,47.206543 C331.473636,46.4204062 332.123044,45.4804742 332.704102,44.3867188 C332.93783,43.9467589 333.163262,43.4717764 333.380398,42.9617687 Z M254.17627,5.45605469 C253.128087,6.02571899 252.062831,6.84032673 250.980469,7.89990234 C249.898107,8.95947795 248.827154,10.2127206 247.767578,11.659668 C246.708003,13.1066153 245.654139,14.7130446 244.605957,16.4790039 C243.557775,18.2449633 242.543787,20.1077376 241.563965,22.0673828 C242.976732,22.3408217 244.412265,22.6769186 245.870605,23.0756836 C247.328946,23.4744486 248.741692,23.9472629 250.108887,24.4941406 L254.17627,5.45605469 Z M320.929199,24.5966797 C320.929199,24.3916005 320.883627,24.140952 320.79248,23.8447266 C320.701334,23.5485011 320.547527,23.2636732 320.331055,22.9902344 C320.114582,22.7167955 319.824058,22.4832366 319.459473,22.2895508 C319.094887,22.0958649 318.62777,21.9990234 318.058105,21.9990234 C317.078283,21.9990234 316.149744,22.3180307 315.272461,22.9560547 C314.395178,23.5940787 313.591963,24.4428658 312.862793,25.5024414 C312.133623,26.562017 311.484215,27.7639907 310.914551,29.1083984 C310.344886,30.4528062 309.860679,31.8370697 309.461914,33.2612305 C309.063149,34.6853912 308.761231,36.0867444 308.556152,37.465332 C308.351073,38.8439197 308.248535,40.0800727 308.248535,41.1738281 C308.248535,42.5182359 308.373859,43.5550094 308.624512,44.2841797 C308.875164,45.01335 309.177082,45.554523 309.530273,45.9077148 C309.883465,46.2609067 310.265135,46.4716793 310.675293,46.5400391 C311.085451,46.6083988 311.450031,46.6425781 311.769043,46.6425781 C312.247561,46.6425781 312.760251,46.5229504 313.307129,46.2836914 C313.854007,46.0444324 314.39518,45.6969424 314.930664,45.2412109 C315.466149,44.7854795 315.950356,44.2158237 316.383301,43.5322266 C316.816246,42.8486294 317.146646,42.0625044 317.374512,41.1738281 L320.929199,24.5966797 Z M314.059082,56.7939453 C313.147619,57.1357439 312.281742,57.5060201 311.461426,57.9047852 C310.641109,58.3035502 309.917646,58.7421851 309.291016,59.2207031 C308.664385,59.6992211 308.163088,60.229001 307.787109,60.8100586 C307.411131,61.3911162 307.223145,62.0348272 307.223145,62.7412109 C307.223145,62.9918632 307.268717,63.2539049 307.359863,63.5273438 C307.45101,63.8007826 307.593424,64.0514312 307.787109,64.2792969 C307.980795,64.5071626 308.225747,64.6894524 308.521973,64.8261719 C308.818198,64.9628913 309.171385,65.03125 309.581543,65.03125 C310.310713,65.03125 311.056962,64.5242564 311.820312,63.5102539 C312.583663,62.4962514 313.193194,60.9296981 313.648926,58.8105469 L314.059082,56.7939453 Z M344.444824,35.5 C345.766445,35.4088537 347.042474,35.0328809 348.272949,34.3720703 C349.503424,33.7112597 350.58577,32.8510795 351.52002,31.7915039 C352.454269,30.7319283 353.200518,29.5242581 353.758789,28.168457 C354.31706,26.812656 354.596191,25.4056062 354.596191,23.9472656 C354.596191,23.0813759 354.470867,22.3863958 354.220215,21.8623047 C353.969563,21.3382135 353.513838,21.0761719 352.853027,21.0761719 C351.964351,21.0761719 351.092778,21.5034137 350.238281,22.3579102 C349.383785,23.2124066 348.58057,24.3232354 347.828613,25.6904297 C347.076656,27.057624 346.410159,28.6013911 345.829102,30.3217773 C345.248044,32.0421635 344.786623,33.7682205 344.444824,35.5 L344.444824,35.5 Z" id="Chris-&amp;-Angel" sketch:type="MSShapeGroup"></path>
                <path d="M2.54003906,86.4052734 C1.64159707,86.4052734 0.904299756,86.2734388 0.328125,86.0097656 L0.328125,84.7207031 C1.08984756,84.9160166 1.81737935,85.0136719 2.51074219,85.0136719 C4.87403525,85.0136719 6.05566406,83.7246223 6.05566406,81.1464844 L6.05566406,59.5839844 L7.54980469,59.5839844 L7.54980469,81 C7.54980469,84.6035336 5.87989951,86.4052734 2.54003906,86.4052734 L2.54003906,86.4052734 Z M44.2148438,59.5839844 L44.2148438,73.4414062 C44.2148438,75.9023561 43.5019603,77.8261649 42.0761719,79.2128906 C40.6503835,80.5996163 38.6630987,81.2929688 36.1142578,81.2929688 C33.6337767,81.2929688 31.6977609,80.5971749 30.3061523,79.2055664 C28.9145438,77.8139579 28.21875,75.8730593 28.21875,73.3828125 L28.21875,59.5839844 L29.7275391,59.5839844 L29.7275391,73.4414062 C29.7275391,75.5019634 30.2988224,77.1059513 31.4414062,78.253418 C32.5839901,79.4008846 34.2001849,79.9746094 36.2900391,79.9746094 C38.3310649,79.9746094 39.9130803,79.4106502 41.0361328,78.2827148 C42.1591853,77.1547795 42.7207031,75.5898538 42.7207031,73.5878906 L42.7207031,59.5839844 L44.2148438,59.5839844 Z M80.6162109,81 L79.1074219,81 L66.421875,61.9863281 L66.3046875,61.9863281 C66.4218756,64.2519645 66.4804688,65.9609317 66.4804688,67.1132812 L66.4804688,81 L65.0449219,81 L65.0449219,59.5839844 L66.5390625,59.5839844 L79.2099609,78.5683594 L79.2978516,78.5683594 C79.2099605,76.8105381 79.1660156,75.1406329 79.1660156,73.5585938 L79.1660156,59.5839844 L80.6162109,59.5839844 L80.6162109,81 Z M113.384766,81 L101.680664,81 L101.680664,59.5839844 L113.384766,59.5839844 L113.384766,60.9609375 L103.174805,60.9609375 L103.174805,69.0615234 L112.813477,69.0615234 L112.813477,70.4384766 L103.174805,70.4384766 L103.174805,79.6230469 L113.384766,79.6230469 L113.384766,81 Z M162.984375,81 L161.548828,81 L161.548828,65.3994141 C161.548828,63.9833914 161.607421,62.5136795 161.724609,60.9902344 C161.578124,61.1367195 161.426759,61.2783196 161.270508,61.4150391 C161.114257,61.5517585 159.605483,62.7382701 156.744141,64.9746094 L155.90918,63.9345703 L161.724609,59.5839844 L162.984375,59.5839844 L162.984375,81 Z M193.643555,59.2177734 C195.45997,59.2177734 196.922358,59.681636 198.030762,60.609375 C199.139166,61.537114 199.693359,62.7919843 199.693359,64.3740234 C199.693359,65.4677789 199.349125,66.4345661 198.660645,67.2744141 C197.972165,68.114262 196.856453,68.8906214 195.313477,69.6035156 C197.188486,70.3750039 198.506832,71.219722 199.268555,72.1376953 C200.030277,73.0556687 200.411133,74.1689388 200.411133,75.4775391 C200.411133,77.245126 199.793463,78.6562447 198.558105,79.7109375 C197.322748,80.7656303 195.665049,81.2929688 193.584961,81.2929688 C191.426747,81.2929688 189.77149,80.7998096 188.619141,79.8134766 C187.466791,78.8271435 186.890625,77.391611 186.890625,75.5068359 C186.890625,74.2275327 187.295894,73.104497 188.106445,72.1376953 C188.916996,71.1708936 190.171867,70.3457065 191.871094,69.6621094 C190.29882,68.9199182 189.190433,68.1362346 188.545898,67.3110352 C187.901364,66.4858357 187.579102,65.4970761 187.579102,64.3447266 C187.579102,63.3193308 187.837888,62.4184609 188.355469,61.6420898 C188.873049,60.8657188 189.59814,60.2675802 190.530762,59.8476562 C191.463384,59.4277323 192.500971,59.2177734 193.643555,59.2177734 L193.643555,59.2177734 Z M188.384766,75.7265625 C188.384766,77.0742255 188.841304,78.1191369 189.754395,78.8613281 C190.667485,79.6035193 191.944328,79.9746094 193.584961,79.9746094 C195.186531,79.9746094 196.475581,79.5815469 197.452148,78.7954102 C198.428716,78.0092734 198.916992,76.9423896 198.916992,75.5947266 C198.916992,74.383783 198.533695,73.3999061 197.76709,72.6430664 C197.000484,71.8862267 195.523448,71.0927776 193.335938,70.2626953 C191.539054,70.9560582 190.264652,71.7226521 189.512695,72.5625 C188.760738,73.4023479 188.384766,74.4570249 188.384766,75.7265625 L188.384766,75.7265625 Z M193.614258,60.5361328 C192.237298,60.5361328 191.131352,60.8754849 190.296387,61.5541992 C189.461422,62.2329135 189.043945,63.16308 189.043945,64.3447266 C189.043945,65.0283237 189.197752,65.631345 189.505371,66.1538086 C189.81299,66.6762721 190.257321,67.1499002 190.838379,67.574707 C191.419436,67.9995138 192.393548,68.4951144 193.760742,69.0615234 C195.352547,68.446286 196.495114,67.7675818 197.188477,67.0253906 C197.881839,66.2831994 198.228516,65.3896537 198.228516,64.3447266 C198.228516,63.1728457 197.815922,62.2451206 196.990723,61.5615234 C196.165523,60.8779263 195.040046,60.5361328 193.614258,60.5361328 L193.614258,60.5361328 Z M221.563477,77.5136719 L221.739258,77.8212891 C221.006832,80.4091926 220.157231,82.757802 219.19043,84.8671875 L218.238281,84.8671875 C218.990238,82.1816272 219.527342,79.7304798 219.849609,77.5136719 L221.563477,77.5136719 Z M276.539062,81 L263.135742,81 L263.135742,79.7109375 L268.833984,73.7636719 C270.435555,72.1035073 271.558591,70.8339888 272.203125,69.9550781 C272.847659,69.0761675 273.321288,68.2363321 273.624023,67.4355469 C273.926759,66.6347616 274.078125,65.7949263 274.078125,64.9160156 C274.078125,63.6367124 273.658207,62.5966837 272.818359,61.7958984 C271.978511,60.9951132 270.889655,60.5947266 269.551758,60.5947266 C267.76464,60.5947266 266.055672,61.2441341 264.424805,62.5429688 L263.633789,61.5322266 C265.420907,60.0283128 267.403309,59.2763672 269.581055,59.2763672 C271.446298,59.2763672 272.913569,59.7744091 273.98291,60.7705078 C275.052251,61.7666065 275.586914,63.1386631 275.586914,64.8867188 C275.586914,66.3027415 275.228031,67.6723567 274.510254,68.9956055 C273.792477,70.3188543 272.481455,71.9521387 270.577148,73.8955078 L265.083984,79.5351562 L265.083984,79.59375 L276.539062,79.59375 L276.539062,81 Z M309.058594,70.2333984 C309.058594,73.9931829 308.484869,76.7763582 307.337402,78.5830078 C306.189936,80.3896575 304.454113,81.2929688 302.129883,81.2929688 C299.893544,81.2929688 298.194342,80.3628023 297.032227,78.5024414 C295.870111,76.6420805 295.289062,73.8857604 295.289062,70.2333984 C295.289062,66.502911 295.853022,63.7392668 296.980957,61.9423828 C298.108892,60.1454988 299.825184,59.2470703 302.129883,59.2470703 C304.385753,59.2470703 306.104486,60.1772368 307.286133,62.0375977 C308.467779,63.8979585 309.058594,66.6298648 309.058594,70.2333984 L309.058594,70.2333984 Z M296.871094,70.2333984 C296.871094,73.5537275 297.30566,76.0073163 298.174805,77.5942383 C299.04395,79.1811603 300.362296,79.9746094 302.129883,79.9746094 C303.975595,79.9746094 305.320797,79.1543051 306.165527,77.5136719 C307.010258,75.8730387 307.432617,73.4463051 307.432617,70.2333984 C307.432617,67.0693201 307.010258,64.6670004 306.165527,63.0263672 C305.320797,61.385734 303.975595,60.5654297 302.129883,60.5654297 C300.28417,60.5654297 298.946293,61.385734 298.116211,63.0263672 C297.286129,64.6670004 296.871094,67.0693201 296.871094,70.2333984 L296.871094,70.2333984 Z M335.71875,81 L334.283203,81 L334.283203,65.3994141 C334.283203,63.9833914 334.341796,62.5136795 334.458984,60.9902344 C334.312499,61.1367195 334.161134,61.2783196 334.004883,61.4150391 C333.848632,61.5517585 332.339858,62.7382701 329.478516,64.9746094 L328.643555,63.9345703 L334.458984,59.5839844 L335.71875,59.5839844 L335.71875,81 Z M359.771484,71.8740234 C359.771484,69.0908064 360.149899,66.7495212 360.906738,64.8500977 C361.663578,62.9506741 362.737786,61.5419968 364.129395,60.6240234 C365.521003,59.7060501 367.198232,59.2470703 369.161133,59.2470703 C370.079106,59.2470703 370.918942,59.3593739 371.680664,59.5839844 L371.680664,60.8730469 C370.96777,60.6093737 370.108403,60.4775391 369.102539,60.4775391 C366.690418,60.4775391 364.812995,61.346671 363.470215,63.0849609 C362.127435,64.8232509 361.373048,67.3525225 361.207031,70.6728516 L361.397461,70.6728516 C362.139652,69.7158155 362.989253,68.9931665 363.946289,68.5048828 C364.903325,68.0165991 365.914057,67.7724609 366.978516,67.7724609 C368.980479,67.7724609 370.545405,68.3437443 371.67334,69.4863281 C372.801275,70.628912 373.365234,72.2060446 373.365234,74.2177734 C373.365234,76.4052844 372.771979,78.1313413 371.585449,79.3959961 C370.39892,80.6606509 368.799815,81.2929688 366.788086,81.2929688 C364.620106,81.2929688 362.908698,80.4653403 361.653809,78.8100586 C360.39892,77.1547769 359.771484,74.8427883 359.771484,71.8740234 L359.771484,71.8740234 Z M366.788086,80.0039062 C368.389656,80.0039062 369.634761,79.5009816 370.523438,78.4951172 C371.412114,77.4892528 371.856445,76.0537203 371.856445,74.1884766 C371.856445,72.5478434 371.416997,71.2685593 370.538086,70.3505859 C369.659175,69.4326126 368.462898,68.9736328 366.949219,68.9736328 C365.95312,68.9736328 365.027836,69.1933572 364.17334,69.6328125 C363.318843,70.0722678 362.637698,70.6557581 362.129883,71.3833008 C361.622068,72.1108435 361.368164,72.8554649 361.368164,73.6171875 C361.368164,74.7011773 361.609861,75.7436473 362.093262,76.7446289 C362.576663,77.7456105 363.230953,78.5390596 364.056152,79.125 C364.881352,79.7109404 365.791987,80.0039062 366.788086,80.0039062 L366.788086,80.0039062 Z" id="JUNE-18,-2016" sketch:type="MSShapeGroup"></path>
            </g>
            <g id="Path-38">
                <use stroke="#FF5959" fill="#FFFFFF" fill-rule="evenodd" sketch:type="MSShapeGroup" xlink:href="#path-1"></use>
                <use stroke="#FFDAD4" fill="none" xlink:href="#path-1"></use>
            </g>
        </g>
    </g>
</svg>