<?xml version="1.0" encoding="UTF-8" standalone="no"?>
<svg width="423px" height="307px" viewBox="0 0 423 307" version="1.1" xmlns="http://www.w3.org/2000/svg" xmlns:xlink="http://www.w3.org/1999/xlink" xmlns:sketch="http://www.bohemiancoding.com/sketch/ns">
    <!-- Generator: Sketch 3.5.2 (25235) - http://www.bohemiancoding.com/sketch -->
    <title>Group 19</title>
    <desc>Created with Sketch.</desc>
    <defs></defs>
    <g id="Page-1" stroke="none" stroke-width="1" fill="none" fill-rule="evenodd" sketch:type="MSPage">
        <g id="Desktop-HD" sketch:type="MSArtboardGroup" transform="translate(-507.000000, -2841.000000)">
            <g id="Group-7" sketch:type="MSLayerGroup" transform="translate(161.000000, 2766.000000)">
                <g id="Group-5" transform="translate(346.000000, 68.000000)" sketch:type="MSShapeGroup">
                    <g id="Group-19">
                        <path d="M63.29,253.08 C61.75,252.24 60.28,251.89 58.81,251.89 C53.14,251.89 48.38,257.49 48.38,264 C48.38,273.59 53.91,278.28 60.98,278.28 C69.66,278.28 82.47,269.39 88.28,254.69 C90.45,256.23 93.46,257.28 97.38,257.28 C98.85,257.28 100.25,257.21 101.58,257.14 C102,261.2 102.07,266.24 102.07,272.26 C102.07,304.39 116.98,313.77 131.68,313.77 C148.13,313.77 160.17,302.85 160.17,289.48 C160.17,284.79 158.49,280.03 154.99,275.97 L154.43,276.11 C157.79,280.03 159.4,284.44 159.4,288.57 C159.4,294.8 153.31,296.13 149.81,296.13 C120.83,296.13 115.23,272.05 107.25,256.37 C139.17,249.93 129.58,211.92 94.72,211.92 C78.13,211.92 60.91,220.74 60.91,235.23 C60.91,241.67 65.39,247.06 73.72,247.06 C77.78,247.06 81.63,244.47 81.63,239.22 C81.63,238.45 81.49,237.61 81.28,236.77 L80.65,236.7 C80.86,237.54 81,238.38 81,239.15 C81,243.91 77.78,246.36 73.79,246.36 C65.88,246.36 61.61,241.6 61.61,235.3 C61.61,222.49 75.96,213.67 89.89,213.67 C117.47,213.67 119.57,244.47 105.85,253.85 C102.28,247.55 98.01,243.07 91.08,242.93 C91.22,241.53 91.29,240.13 91.29,238.66 C91.29,234.18 90.24,229.84 87.79,225.92 L87.37,226.13 C89.4,229.84 90.31,233.55 90.31,237.05 C90.31,239.08 89.96,241.11 89.33,243.07 C84.71,243.7 83.31,247.62 85.06,251.19 C77.71,261.34 64.2,269.11 55.87,269.11 C51.67,269.11 49.36,267.15 49.36,263.09 C49.36,257.77 53.28,252.52 58.81,252.52 C60.28,252.52 61.89,252.87 63.43,253.71 L63.29,253.08 Z M97.03,256.51 C93.32,256.51 90.45,255.53 88.49,254.06 C89.68,250.84 90.59,247.41 91.01,243.7 C97.8,243.84 100.46,247.9 101.44,255.88 C100.11,256.3 98.57,256.51 97.03,256.51 L97.03,256.51 Z M89.05,243.77 C88.28,246.08 87.09,248.25 85.62,250.42 C84.5,247.48 85.62,244.4 89.05,243.77 L89.05,243.77 Z M154.57,236.07 C130.07,236.07 124.61,274.64 145.05,274.64 C152.82,274.64 158.63,271.35 162.06,262.6 L161.5,262.6 C158.35,269.74 154.92,271.91 151,271.91 C145.19,271.91 142.53,266.73 142.18,260.36 C155.69,259.17 162.76,250.21 162.76,243.49 C162.76,239.36 160.1,236.07 154.57,236.07 L154.57,236.07 Z M155.34,236.91 C159.82,236.91 162.06,239.71 162.06,243.35 C162.06,249.65 155.34,258.54 142.11,259.73 C141.83,249.65 147.22,236.91 155.34,236.91 L155.34,236.91 Z M190.41,245.1 C190.41,248.18 192.58,250.14 195.17,250.14 C198.46,250.14 200.63,247.06 200.63,243.91 C200.63,241.11 197.9,236.14 190.2,236.14 C177.46,236.14 169.9,249.72 169.9,260.71 C169.9,268.27 172.91,274.64 182.29,274.64 C188.24,274.64 194.12,270.44 197.13,264.91 L196.71,264.56 C193.77,269.25 190.76,271.84 187.12,271.84 C181.1,271.84 179.21,265.75 179.21,258.61 C179.21,248.18 184.25,236.98 191.67,236.98 C194.47,236.98 196.36,237.96 197.48,239.15 C196.85,238.94 196.22,238.8 195.66,238.8 C192.23,238.8 190.41,242.37 190.41,245.1 L190.41,245.1 Z M228.42,236.07 C203.92,236.07 198.46,274.64 218.9,274.64 C226.67,274.64 232.48,271.35 235.91,262.6 L235.35,262.6 C232.2,269.74 228.77,271.91 224.85,271.91 C219.04,271.91 216.38,266.73 216.03,260.36 C229.54,259.17 236.61,250.21 236.61,243.49 C236.61,239.36 233.95,236.07 228.42,236.07 L228.42,236.07 Z M229.19,236.91 C233.67,236.91 235.91,239.71 235.91,243.35 C235.91,249.65 229.19,258.54 215.96,259.73 C215.68,249.65 221.07,236.91 229.19,236.91 L229.19,236.91 Z M261.74,274.57 C273.64,274.57 281.62,261.69 281.62,250.56 C281.62,243.21 278.19,237.12 269.51,237.12 C265.17,237.12 261.95,239.01 259.08,242.3 C258.59,238.52 254.95,237.19 251.52,237.19 C246.41,237.19 242.7,239.78 241.86,241.04 L242.14,241.46 C243.61,239.78 245.92,238.52 248.09,238.52 C249.42,238.52 250.12,239.43 250.12,241.32 C250.12,247.97 240.53,281.08 240.53,287.73 C240.53,292.63 243.96,294.66 247.74,294.66 C252.08,294.66 257.05,291.23 257.82,283.53 L257.19,283.6 C256.91,288.43 253.34,293.19 250.75,293.19 C249.49,293.19 248.72,292.56 248.72,290.25 C248.72,287.45 251.1,278.56 253.48,268.83 C254.32,272.19 258.03,274.57 261.74,274.57 L261.74,274.57 Z M259.08,243.14 C261.88,239.5 265.38,238.1 267.27,238.1 C271.12,238.1 272.8,241.88 272.8,247.41 C272.8,257.98 266.99,272.68 258.94,272.68 C256.56,272.68 254.46,271 253.69,268.06 C256.35,257.28 258.73,248.46 259.08,243.14 L259.08,243.14 Z M291.77,240.76 L296.46,240.76 C294.22,251.05 291.28,264.91 291.28,267.43 C291.28,272.33 294.85,274.64 298.63,274.64 C305.07,274.64 309.13,271.14 309.9,263.44 L309.27,263.44 C308.64,270.58 304.37,273.17 302.27,273.17 C301.29,273.17 299.82,272.68 299.82,270.79 C299.82,267.99 303.11,253.01 305.84,240.76 L313.61,240.76 L313.82,240.06 L305.98,240.06 C307.45,233.48 308.78,227.74 309.27,225.36 L308.71,225.36 L308.15,227.81 C307.52,230.54 305.49,231.66 303.46,231.66 C301.99,231.66 300.31,231.31 298.7,230.61 L296.6,240.06 L291.98,240.06 L291.77,240.76 Z M333.419999,242.86 C333.419999,237.75 329.919999,235.86 325.999999,235.86 C321.589999,235.86 317.809999,237.89 316.269999,240.13 L316.899999,240.13 C318.159999,238.45 320.889999,236.98 322.569999,236.98 C323.899999,236.98 324.669999,237.61 324.669999,239.5 C324.669999,246.15 319.349999,260.36 319.349999,267.01 C319.349999,271.7 322.639999,274.64 327.119999,274.64 C331.739999,274.64 336.009999,270.86 336.989999,263.44 L336.359999,263.51 C335.939999,269.95 331.179999,273.66 329.569999,273.66 C328.309999,273.66 327.399999,272.61 327.399999,270.02 C327.399999,264.35 333.419999,249.02 333.419999,242.86 L333.419999,242.86 Z M333.139999,220.18 C329.359999,220.18 327.399999,223.54 327.399999,226.62 C327.399999,229.7 329.569999,231.66 332.159999,231.66 C335.449999,231.66 337.619999,228.58 337.619999,225.43 C337.619999,222.77 335.799999,220.18 333.139999,220.18 L333.139999,220.18 Z M370.169999,242.72 C366.389999,242.72 364.429999,246.08 364.429999,249.16 C364.429999,252.24 366.599999,254.2 369.189999,254.2 C372.129999,254.2 374.159999,251.75 374.579999,249.02 L374.579999,249.86 C374.579999,259.31 368.279999,271.77 361.139999,271.77 C355.119999,271.77 352.529999,266.17 352.529999,259.03 C352.529999,249.51 357.569999,237.26 364.989999,237.26 C366.249999,237.26 369.399999,237.75 371.639999,240.34 L371.569999,239.71 C369.259999,236.91 365.619999,236.56 363.869999,236.56 C351.829999,236.56 343.499999,248.04 343.499999,261.13 C343.499999,268.69 347.629999,275.06 356.309999,275.06 C367.299999,275.06 375.279999,260.92 375.279999,250.07 C375.279999,246.5 373.739999,242.72 370.169999,242.72 L370.169999,242.72 Z M419.239999,243.07 C419.239999,238.1 415.949999,236.21 411.819999,236.21 C407.059999,236.21 401.459999,238.73 398.659999,241.88 C398.169999,237.33 394.599999,236.21 391.099999,236.21 C387.529999,236.21 383.609999,237.61 381.649999,240.69 L382.279999,240.83 C383.539999,239.08 385.709999,237.61 387.739999,237.61 C388.999999,237.61 389.909999,238.66 389.909999,240.13 C389.909999,244.96 383.889999,269.39 382.559999,276.18 L383.119999,276.18 L383.679999,273.45 C385.219999,272.89 386.969999,272.54 388.229999,272.54 C389.839999,272.54 390.959999,273.03 392.499999,273.8 C393.759999,267.99 398.729999,246.57 398.729999,242.93 L398.729999,242.65 C400.619999,240.55 403.909999,238.31 406.429999,238.31 C408.319999,238.31 409.789999,239.5 409.789999,242.51 C409.789999,249.16 405.239999,260.15 405.239999,267.5 C405.239999,272.4 408.739999,274.78 412.519999,274.78 C417.279999,274.78 421.619999,271 422.249999,263.44 L421.689999,263.44 C421.129999,270.58 417.209999,273.31 415.599999,273.31 C414.339999,273.31 413.149999,272.54 413.149999,270.23 C413.149999,265.26 419.239999,247.83 419.239999,243.07 L419.239999,243.07 Z" id="Reception" fill="#9C9C9C"></path>
                        <path d="M0.26,239.04 L2.27,239.04 C1.31,243.45 0.05,249.39 0.05,250.47 C0.05,252.57 1.58,253.56 3.2,253.56 C5.96,253.56 7.7,252.06 8.03,248.76 L7.76,248.76 C7.49,251.82 5.66,252.93 4.76,252.93 C4.34,252.93 3.71,252.72 3.71,251.91 C3.71,250.71 5.12,244.29 6.29,239.04 L9.62,239.04 L9.71,238.74 L6.35,238.74 C6.98,235.92 7.55,233.46 7.76,232.44 L7.52,232.44 L7.28,233.49 C7.01,234.66 6.14,235.14 5.27,235.14 C4.64,235.14 3.92,234.99 3.23,234.69 L2.33,238.74 L0.35,238.74 L0.26,239.04 Z M5.7800001,222.99 C5.7800001,224.31 6.7100001,225.15 7.8200001,225.15 C9.2300001,225.15 10.1600001,223.83 10.1600001,222.48 C10.1600001,221.25 9.2000001,220.2 8.0000001,220.2 C5.2400001,220.2 4.1000001,223.2 4.1000001,225.51 C4.1000001,229.35 6.9800001,233.97 14.6300001,235.44 C13.4600001,241.41 11.0000001,252.03 10.5800001,254.22 L10.8200001,254.22 L11.0600001,253.05 C11.7200001,252.81 12.4700001,252.66 13.0100001,252.66 C13.7000001,252.66 14.1200001,252.87 14.7800001,253.2 C15.0800001,251.76 16.4600001,245.67 17.5400001,240.54 C18.3200001,239.58 19.8500001,238.5 20.9900001,238.5 C21.8000001,238.5 22.4300001,239.01 22.4300001,240.3 C22.4300001,243.15 20.4800001,247.86 20.4800001,251.01 C20.4800001,253.11 21.9800001,254.13 23.6000001,254.13 C25.6400001,254.13 27.5000001,252.51 27.7700001,249.27 L27.5300001,249.27 C27.2900001,252.33 25.6100001,253.5 24.9200001,253.5 C24.3800001,253.5 23.8700001,253.17 23.8700001,252.18 C23.8700001,250.05 26.4800001,242.58 26.4800001,240.54 C26.4800001,238.41 25.0700001,237.6 23.3000001,237.6 C21.2600001,237.6 18.8600001,238.68 17.6600001,240.03 C17.9900001,238.5 18.2600001,237.06 18.5000001,235.86 C18.9500001,235.89 19.4000001,235.89 19.8800001,235.89 C31.5200001,235.89 40.7900001,225.93 40.7900001,219.57 C40.7900001,216.57 38.7500001,214.38 33.9500001,214.38 C29.9600001,214.38 20.9900001,218.04 18.8300001,231.81 C18.4100001,230.22 17.0600001,229.77 15.8900001,229.77 C14.2100001,229.77 12.5600001,230.4 11.7200001,231.72 L11.9900001,231.78 C12.7100001,230.85 13.4900001,230.43 14.0600001,230.43 C14.7500001,230.43 15.2600001,230.73 15.2600001,231.48 C15.2600001,231.96 15.0200001,233.34 14.6900001,235.11 C7.2200001,233.7 4.4300001,229.23 4.4300001,225.57 C4.4300001,222.99 5.5100001,221.43 6.7400001,220.8 C6.1100001,221.34 5.7800001,222.21 5.7800001,222.99 L5.7800001,222.99 Z M18.9800001,232.98 C20.2700001,222.81 25.4600001,217.89 29.6900001,217.89 C32.2700001,217.89 34.3100001,219.69 34.3100001,223.11 C34.3100001,231.3 25.4300001,235.56 19.8800001,235.56 C19.4300001,235.56 18.9800001,235.56 18.5600001,235.53 C18.8000001,234.27 18.9800001,233.34 18.9800001,232.98 L18.9800001,232.98 Z M40.4000002,237.03 C29.9000002,237.03 27.5600002,253.56 36.3200002,253.56 C39.6500002,253.56 42.1400002,252.15 43.6100002,248.4 L43.3700002,248.4 C42.0200002,251.46 40.5500002,252.39 38.8700002,252.39 C36.3800002,252.39 35.2400002,250.17 35.0900002,247.44 C40.8800002,246.93 43.9100002,243.09 43.9100002,240.21 C43.9100002,238.44 42.7700002,237.03 40.4000002,237.03 L40.4000002,237.03 Z M40.7300002,237.39 C42.6500002,237.39 43.6100002,238.59 43.6100002,240.15 C43.6100002,242.85 40.7300002,246.66 35.0600002,247.17 C34.9400002,242.85 37.2500002,237.39 40.7300002,237.39 L40.7300002,237.39 Z" id="the" fill="#9C9C9C"></path>
                        <g id="Group" transform="translate(198.500000, 102.285553) rotate(-30.000000) translate(-198.500000, -102.285553) translate(168.000000, 1.785553)">
                            <path d="M3.77360141,194.147235 C5.69404388,193.755788 20.3508751,192.017864 25.2690034,184.363286 C30.1871318,176.708708 27.8904867,123.071889 24.8047938,117.286618 C21.7191008,111.501347 11.0010641,100.892859 9.12090669,92.1721167 C7.24074925,83.4513748 6.41536704,77.985524 6.41536703,58.6335116 C6.41536702,39.2814993 12.1523693,0.692446414 12.1523693,0.692446414 L47.0347962,0.403399984 C47.0347962,0.403399984 52.7837286,35.2738958 52.783729,58.4523831 C52.7837294,81.6308704 53.2793846,83.4318223 48.9984984,94.0061145 C44.7176121,104.580407 36.8213916,109.493755 34.1391691,117.286617 C31.4569467,125.079479 30.4187614,176.531371 35.2093807,184.475 C39.9999999,192.418628 56.9736396,193.490879 58.2049269,193.829898 C59.4362142,194.168918 70.2368308,200.93584 30.2396091,200.93584 C-9.75761258,200.93584 1.85315894,194.538683 3.77360141,194.147235 Z" id="Path-29" fill="#FFFFFF"></path>
                            <path d="M29.2807532,104.000002 C36.0612097,104.000002 46.9773442,104.49387 49.559524,85.9271791 C53.1209559,60.319355 51.0653453,51.1453285 51.0653453,51.1453285 L10.1989899,27.0810432 C10.1989899,27.0810432 4.49816179,57.9662132 9.64218995,83.7423342 C13.9433223,105.294803 22.5002966,104.000002 29.2807532,104.000002 Z" id="Path-30" stroke="#FFFFFF" fill="#FFF2D1"></path>
                            <circle id="Oval-23" fill="#FFFFFF" cx="16.7022506" cy="68.1304538" r="1"></circle>
                            <circle id="Oval-23" fill="#FFFFFF" cx="23.3003268" cy="62.7022506" r="1"></circle>
                            <circle id="Oval-23" fill="#FFFFFF" cx="23.238149" cy="48.8099457" r="1"></circle>
                            <circle id="Oval-23" fill="#FFFFFF" cx="16.9798187" cy="33.6496917" r="1"></circle>
                            <circle id="Oval-23" fill="#FFFFFF" cx="39.0849365" cy="83.3625046" r="1"></circle>
                            <circle id="Oval-23" fill="#FFFFFF" cx="36.7644284" cy="47.3817425" r="1"></circle>
                            <circle id="Oval-23" fill="#FFFFFF" cx="15.4343014" cy="74.3266062" r="1"></circle>
                            <circle id="Oval-23" fill="#FFFFFF" cx="21.5419966" cy="38.3817425" r="0.5"></circle>
                            <circle id="Oval-23" fill="#FFFFFF" cx="41.058657" cy="56.5778949" r="0.5"></circle>
                        </g>
                        <g id="Group" transform="translate(227.500000, 102.285553) scale(-1, 1) rotate(-30.000000) translate(-227.500000, -102.285553) translate(197.000000, 1.785553)">
                            <path d="M3.77360141,194.147235 C5.69404388,193.755788 20.3508751,192.017864 25.2690034,184.363286 C30.1871318,176.708708 27.8904867,123.071889 24.8047938,117.286618 C21.7191008,111.501347 11.0010641,100.892859 9.12090669,92.1721167 C7.24074925,83.4513748 6.41536704,77.985524 6.41536703,58.6335116 C6.41536702,39.2814993 12.1523693,0.692446414 12.1523693,0.692446414 L47.0347962,0.403399984 C47.0347962,0.403399984 52.7837286,35.2738958 52.783729,58.4523831 C52.7837294,81.6308704 53.2793846,83.4318223 48.9984984,94.0061145 C44.7176121,104.580407 36.8213916,109.493755 34.1391691,117.286617 C31.4569467,125.079479 30.4187614,176.531371 35.2093807,184.475 C39.9999999,192.418628 56.9736396,193.490879 58.2049269,193.829898 C59.4362142,194.168918 70.2368308,200.93584 30.2396091,200.93584 C-9.75761258,200.93584 1.85315894,194.538683 3.77360141,194.147235 Z" id="Path-29" fill="#FFFFFF"></path>
                            <path d="M29.2807532,104.000002 C36.0612097,104.000002 46.9773442,104.49387 49.559524,85.9271791 C53.1209559,60.319355 51.0653453,51.1453285 51.0653453,51.1453285 L10.1989899,27.0810432 C10.1989899,27.0810432 4.49816179,57.9662132 9.64218995,83.7423342 C13.9433223,105.294803 22.5002966,104.000002 29.2807532,104.000002 Z" id="Path-30" stroke="#FFFFFF" fill="#FFF2D1"></path>
                            <circle id="Oval-23" fill="#FFFFFF" cx="16.7022506" cy="68.1304538" r="1"></circle>
                            <circle id="Oval-23" fill="#FFFFFF" cx="23.3003268" cy="62.7022506" r="1"></circle>
                            <circle id="Oval-23" fill="#FFFFFF" cx="23.238149" cy="48.8099457" r="1"></circle>
                            <circle id="Oval-23" fill="#FFFFFF" cx="16.9798187" cy="33.6496917" r="1"></circle>
                            <circle id="Oval-23" fill="#FFFFFF" cx="39.0849365" cy="83.3625046" r="1"></circle>
                            <circle id="Oval-23" fill="#FFFFFF" cx="36.7644284" cy="47.3817425" r="1"></circle>
                            <circle id="Oval-23" fill="#FFFFFF" cx="15.4343014" cy="74.3266062" r="1"></circle>
                            <circle id="Oval-23" fill="#FFFFFF" cx="21.5419966" cy="38.3817425" r="0.5"></circle>
                            <circle id="Oval-23" fill="#FFFFFF" cx="41.058657" cy="56.5778949" r="0.5"></circle>
                        </g>
                    </g>
                </g>
            </g>
        </g>
    </g>
</svg>