<?xml version="1.0" encoding="UTF-8" standalone="no"?>
<svg width="329px" height="246px" viewBox="0 0 329 246" version="1.1" xmlns="http://www.w3.org/2000/svg" xmlns:xlink="http://www.w3.org/1999/xlink" xmlns:sketch="http://www.bohemiancoding.com/sketch/ns">
    <!-- Generator: Sketch 3.5.2 (25235) - http://www.bohemiancoding.com/sketch -->
    <title>Group 20</title>
    <desc>Created with Sketch.</desc>
    <defs></defs>
    <g id="Page-1" stroke="none" stroke-width="1" fill="none" fill-rule="evenodd" sketch:type="MSPage">
        <g id="Desktop-HD" sketch:type="MSArtboardGroup" transform="translate(-556.000000, -3786.000000)">
            <g id="Group-7" sketch:type="MSLayerGroup" transform="translate(161.000000, 3718.000000)">
                <g id="Group-20" transform="translate(395.000000, 68.000000)" sketch:type="MSShapeGroup">
                    <path d="M15.29,185.08 C13.75,184.24 12.28,183.89 10.81,183.89 C5.14,183.89 0.38,189.49 0.38,196 C0.38,205.59 5.91,210.28 12.98,210.28 C21.66,210.28 34.47,201.39 40.28,186.69 C42.45,188.23 45.46,189.28 49.38,189.28 C50.85,189.28 52.25,189.21 53.58,189.14 C54,193.2 54.07,198.24 54.07,204.26 C54.07,236.39 68.98,245.77 83.68,245.77 C100.13,245.77 112.17,234.85 112.17,221.48 C112.17,216.79 110.49,212.03 106.99,207.97 L106.43,208.11 C109.79,212.03 111.4,216.44 111.4,220.57 C111.4,226.8 105.31,228.13 101.81,228.13 C72.83,228.13 67.23,204.05 59.25,188.37 C91.17,181.93 81.58,143.92 46.72,143.92 C30.13,143.92 12.91,152.74 12.91,167.23 C12.91,173.67 17.39,179.06 25.72,179.06 C29.78,179.06 33.63,176.47 33.63,171.22 C33.63,170.45 33.49,169.61 33.28,168.77 L32.65,168.7 C32.86,169.54 33,170.38 33,171.15 C33,175.91 29.78,178.36 25.79,178.36 C17.88,178.36 13.61,173.6 13.61,167.3 C13.61,154.49 27.96,145.67 41.89,145.67 C69.47,145.67 71.57,176.47 57.85,185.85 C54.28,179.55 50.01,175.07 43.08,174.93 C43.22,173.53 43.29,172.13 43.29,170.66 C43.29,166.18 42.24,161.84 39.79,157.92 L39.37,158.13 C41.4,161.84 42.31,165.55 42.31,169.05 C42.31,171.08 41.96,173.11 41.33,175.07 C36.71,175.7 35.31,179.62 37.06,183.19 C29.71,193.34 16.2,201.11 7.87,201.11 C3.67,201.11 1.36,199.15 1.36,195.09 C1.36,189.77 5.28,184.52 10.81,184.52 C12.28,184.52 13.89,184.87 15.43,185.71 L15.29,185.08 Z M49.03,188.51 C45.32,188.51 42.45,187.53 40.49,186.06 C41.68,182.84 42.59,179.41 43.01,175.7 C49.8,175.84 52.46,179.9 53.44,187.88 C52.11,188.3 50.57,188.51 49.03,188.51 L49.03,188.51 Z M41.05,175.77 C40.28,178.08 39.09,180.25 37.62,182.42 C36.5,179.48 37.62,176.4 41.05,175.77 L41.05,175.77 Z M92.2899999,193.2 C88.5099999,193.2 86.5499999,196.56 86.5499999,199.64 C86.5499999,202.72 88.7199999,204.68 91.3099999,204.68 C94.5999999,204.68 96.7699999,201.6 96.7699999,198.45 C96.7699999,195.79 94.9499999,193.2 92.2899999,193.2 L92.2899999,193.2 Z M119.73,191.24 C118.68,190.47 117.28,190.05 115.32,190.05 C109.79,190.05 106.22,194.74 106.22,199.99 C106.22,206.57 111.68,213.78 124.91,213.78 C142.48,213.78 150.95,199.43 150.95,188.3 C150.95,179.69 149.06,173.46 147.73,167.93 C155.71,162.26 159.7,153.16 159.7,146.65 C159.7,142.17 157.46,140 154.52,140 C149.55,140 137.72,149.45 137.72,163.17 C137.72,165.9 138,168.7 138.42,171.5 C136.04,172.13 133.45,172.48 130.65,172.48 C121.13,172.48 117.91,167.37 117.91,162.47 C117.91,158.97 120.64,155.33 124.35,155.33 C126.38,155.33 128.41,156.17 129.53,158.34 L129.6,157.85 C128.55,155.61 126.45,154.7 124.35,154.7 C120.64,154.7 117.21,158.27 117.21,162.47 C117.21,167.58 120.57,173.18 130.65,173.18 C133.45,173.18 136.11,172.83 138.49,172.2 C139.75,179.83 141.92,187.6 141.92,195.09 C141.92,203.56 137.79,213.08 124.63,213.08 C111.96,213.08 106.92,206.01 106.92,199.99 C106.92,195.02 110.35,190.68 115.32,190.68 C117.28,190.68 118.68,191.03 119.73,191.8 L119.73,191.24 Z M146.33,158.55 C146.33,145.67 151.23,140.7 155.01,140.7 C157.18,140.7 159.07,143.01 159.07,146.65 C159.07,152.95 155.22,161.7 147.52,167.23 C146.82,164.29 146.33,161.49 146.33,158.55 L146.33,158.55 Z M168.87,193.2 C165.09,193.2 163.13,196.56 163.13,199.64 C163.13,202.72 165.3,204.68 167.89,204.68 C171.18,204.68 173.35,201.6 173.35,198.45 C173.35,195.79 171.53,193.2 168.87,193.2 L168.87,193.2 Z M180.63,210.7 C181.19,210.77 181.75,210.77 182.31,210.77 C214.3,210.77 242.16,112.7 287.1,112.7 C309.01,112.7 312.58,123.13 312.58,131.39 C312.58,143.85 304.32,153.86 295.15,153.86 C292.35,153.86 289.41,153.02 286.54,151.13 L286.54,151.69 C289.48,153.65 292.49,154.49 295.29,154.49 C305.09,154.49 313.28,144.06 313.28,131.25 C313.28,118.02 303.69,97.02 277.09,97.02 C207.72,97.02 224.1,205.45 183.15,210.14 C191.13,206.08 207.65,188.93 207.65,164.29 C207.65,152.81 200.72,145.32 191.9,145.32 C182.8,145.32 178.74,151.76 178.74,157.43 C178.74,161.84 181.19,165.76 185.53,165.76 C186.58,165.76 187.63,165.48 188.61,164.85 L188.54,164.29 C187.63,164.92 186.58,165.2 185.6,165.2 C182.24,165.2 180.77,162.96 180.77,160.86 C180.77,157.29 183.57,153.02 188.05,153.02 C196.1,153.02 199.25,161.07 199.25,170.87 C199.25,186.13 189.52,206.92 180.63,210.7 L180.63,210.7 Z M243.28,193.2 C239.5,193.2 237.54,196.56 237.54,199.64 C237.54,202.72 239.71,204.68 242.3,204.68 C245.59,204.68 247.76,201.6 247.76,198.45 C247.76,195.79 245.94,193.2 243.28,193.2 L243.28,193.2 Z M271.349999,185.78 C269.809999,184.94 268.339999,184.59 266.869999,184.59 C261.199999,184.59 256.439999,190.19 256.439999,196.7 C256.439999,210.07 264.629999,217.84 274.009999,217.84 C284.719999,217.84 296.899999,207.69 299.909999,184.03 C301.029999,184.31 302.219999,184.45 303.619999,184.45 C319.929999,184.45 328.889999,174.16 328.889999,163.66 C328.889999,147.7 314.539999,140.14 299.419999,140.14 C282.339999,140.14 263.789999,149.73 263.789999,167.72 C263.789999,175.28 268.339999,181.58 275.339999,181.58 C279.749999,181.58 284.019999,178.71 284.019999,173.25 C284.019999,172.48 283.739999,171.43 283.319999,170.59 L282.689999,170.52 C283.109999,171.36 283.389999,172.41 283.389999,173.18 C283.389999,178.15 279.259999,180.88 275.409999,180.88 C268.829999,180.88 264.419999,175 264.419999,167.58 C264.419999,151.97 280.519999,141.68 294.799999,141.68 C306.349999,141.68 316.709999,147.91 316.709999,163.52 C316.709999,173.81 310.829999,183.33 302.219999,183.33 C301.379999,183.33 300.679999,183.26 299.979999,183.12 C300.399999,179.83 300.609999,176.26 300.609999,172.41 C300.609999,165.48 298.789999,157.78 294.449999,149.52 L293.889999,149.66 C296.829999,155.47 298.579999,161.07 298.579999,166.18 C298.579999,167.37 298.509999,168.56 298.369999,169.75 C298.019999,169.68 297.739999,169.61 297.529999,169.61 C294.589999,169.61 292.279999,172.55 292.279999,175.56 C292.279999,177.52 293.049999,179.62 294.659999,181.3 C287.869999,193.97 273.589999,201.81 263.929999,201.81 C259.729999,201.81 257.419999,199.85 257.419999,195.79 C257.419999,190.47 261.339999,185.22 266.869999,185.22 C268.339999,185.22 269.949999,185.57 271.489999,186.41 L271.349999,185.78 Z M295.079999,180.6 C293.609999,179.13 292.979999,177.31 292.979999,175.77 C292.979999,173.18 294.589999,170.24 297.809999,170.24 C297.949999,170.24 298.089999,170.24 298.299999,170.31 C297.809999,173.95 296.689999,177.45 295.079999,180.6 L295.079999,180.6 Z" id="R.S.V.P" fill="#9C9C9C"></path>
                    <g id="Group-11" transform="translate(90.000000, 0.000000)">
                        <path d="M0,80 L114,80 L137.725098,106.302197 L23.7250977,106.302197 L0,80 Z" id="Rectangle-30" fill="#FFFFFF"></path>
                        <path d="M3,81 L113,81 L134.725098,105.302197 L24.7250977,105.302197 L3,81 Z" id="Rectangle-30" fill="#FFABAB"></path>
                        <path d="M26,89 L110.50148,89" id="Path-56" stroke="#979797"></path>
                        <path d="M34,96 L90.5022125,96" id="Path-56" stroke="#979797"></path>
                        <path d="M112.351843,-4.97249789 L121.351843,-4.97249789 L121.351843,87.0275021 C121.351843,87.0275021 118.243448,102.846418 116.851843,102.846418 C115.243448,102.846418 112.351843,87.0275021 112.351843,87.0275021 L112.351843,-4.97249789 Z" id="Rectangle-31" fill="#FFFFFF" transform="translate(116.851843, 48.936960) rotate(-330.000000) translate(-116.851843, -48.936960) "></path>
                    </g>
                </g>
            </g>
        </g>
    </g>
</svg>