<?xml version="1.0" encoding="UTF-8" standalone="no"?>
<svg width="103px" height="106px" viewBox="0 0 103 106" version="1.1" xmlns="http://www.w3.org/2000/svg" xmlns:xlink="http://www.w3.org/1999/xlink" xmlns:sketch="http://www.bohemiancoding.com/sketch/ns">
    <!-- Generator: Sketch 3.5.1 (25234) - http://www.bohemiancoding.com/sketch -->
    <title>Artboard 5</title>
    <desc>Created with Sketch.</desc>
    <defs>
        <filter x="-50%" y="-50%" width="200%" height="200%" filterUnits="objectBoundingBox" id="filter-1">
            <feOffset dx="1" dy="1" in="SourceAlpha" result="shadowOffsetOuter1"></feOffset>
            <feGaussianBlur stdDeviation="1.5" in="shadowOffsetOuter1" result="shadowBlurOuter1"></feGaussianBlur>
            <feColorMatrix values="0 0 0 0 0   0 0 0 0 0   0 0 0 0 0  0 0 0 0.35 0" in="shadowBlurOuter1" type="matrix" result="shadowMatrixOuter1"></feColorMatrix>
            <feMerge>
                <feMergeNode in="shadowMatrixOuter1"></feMergeNode>
                <feMergeNode in="SourceGraphic"></feMergeNode>
            </feMerge>
        </filter>
    </defs>
    <g id="Welcome" stroke="none" stroke-width="1" fill="none" fill-rule="evenodd" sketch:type="MSPage">
        <g id="Artboard-5" sketch:type="MSArtboardGroup" transform="translate(-360.000000, -53.000000)">
            <g id="Group" sketch:type="MSLayerGroup" transform="translate(365.000000, 61.000000)">
                <path d="M66.75,89 C66.75,86.5423329 68.7423329,84.55 71.2,84.55 C73.6576671,84.55 75.65,86.5423329 75.65,89 C75.65,86.5423328 77.6423329,84.55 80.1,84.55 C82.5576671,84.55 84.55,86.5423329 84.55,89 C84.55,86.5423329 86.5423329,84.55 89,84.55 C86.5423329,84.55 84.55,82.5576671 84.55,80.1 C84.55,77.6423329 86.5423329,75.65 89,75.65 C86.5423329,75.65 84.55,73.6576671 84.55,71.2 C84.55,68.7423329 86.5423329,66.75 89,66.75 C86.5423329,66.75 84.55,64.7576671 84.55,62.3 C84.55,59.8423329 86.5423329,57.85 89,57.85 C86.5423329,57.85 84.55,55.8576671 84.55,53.4 C84.55,50.9423329 86.5423329,48.95 89,48.95 C86.5423329,48.95 84.55,46.9576671 84.55,44.5 C84.55,42.0423329 86.5423329,40.05 89,40.05 C86.5423329,40.05 84.55,38.0576671 84.55,35.6 C84.55,33.1423329 86.5423329,31.15 89,31.15 C86.5423329,31.15 84.55,29.1576671 84.55,26.7 C84.55,24.2423329 86.5423329,22.25 89,22.25 C86.5423329,22.25 84.55,20.2576671 84.55,17.8 C84.55,15.3423329 86.5423329,13.35 89,13.35 C86.5423329,13.35 84.55,11.3576671 84.55,8.9 C84.55,6.44233286 86.5423329,4.45 89,4.45 C86.5423329,4.45 84.55,2.45766714 84.55,0 C84.55,2.45766714 82.5576671,4.45 80.1,4.45 C77.6423329,4.45 75.65,2.45766714 75.65,0 C75.65,2.45766714 73.6576671,4.45 71.2,4.45 C68.7423329,4.45 66.75,2.45766714 66.75,0 C66.75,2.45766714 64.7576671,4.45 62.3,4.45 C59.8423329,4.45 57.85,2.45766714 57.85,0 C57.85,2.45766714 55.8576671,4.45 53.4,4.45 C50.9423329,4.45 48.95,2.45766714 48.95,0 C48.95,2.45766714 46.9576671,4.45 44.5,4.45 C42.0423329,4.45 40.05,2.45766714 40.05,0 C40.05,2.45766714 38.0576671,4.45 35.6,4.45 C33.1423329,4.45 31.15,2.45766714 31.15,0 C31.15,2.45766714 29.1576671,4.45 26.7,4.45 C24.2423329,4.45 22.25,2.45766714 22.25,0 C22.25,2.45766714 20.2576671,4.45 17.8,4.45 C15.3423329,4.45 13.35,2.45766714 13.35,0 C13.35,2.45766714 11.3576671,4.45 8.9,4.45 C6.44233286,4.45 4.45,2.45766714 4.45,0 C4.45,2.45766714 2.45766714,4.45 8.18567593e-16,4.45 C2.45766714,4.45 4.45,6.44233286 4.45,8.9 C4.45,11.3576671 2.45766714,13.35 -8.8817842e-16,13.35 C2.45766714,13.35 4.45,15.3423329 4.45,17.8 C4.45,20.2576671 2.45766714,22.25 7.05449075e-09,22.25 C2.45766714,22.25 4.45,24.2423329 4.45,26.7 C4.45,29.1576671 2.45766714,31.15 6.86644204e-09,31.15 C2.45766714,31.15 4.45,33.1423329 4.45,35.6 C4.45,38.0576671 2.45766714,40.05 -5.79958398e-15,40.05 C2.45766714,40.05 4.45,42.0423329 4.45,44.5 C4.45,46.9576671 2.45766714,48.95 1.06334508e-08,48.95 C2.45766715,48.95 4.45,50.9423329 4.45,53.4 C4.45,55.8576671 2.45766714,57.85 -2.05338006e-14,57.85 C2.45766714,57.85 4.45,59.8423329 4.45,62.3 C4.45,64.7576671 2.45766714,66.75 -8.8817842e-16,66.75 C2.45766714,66.75 4.45,68.7423329 4.45,71.2 C4.45,73.6576671 2.45766719,75.6499999 9.44787086e-08,75.65 C2.45766717,75.65 4.45,77.6423329 4.45,80.1 C4.45,82.5576671 2.45766714,84.55 7.07576778e-09,84.55 C2.45766714,84.55 4.45,86.5423329 4.45,89 C4.45,86.5423329 6.44233286,84.55 8.9,84.55 C11.3576671,84.55 13.35,86.5423329 13.35,89 C13.35,86.5423329 15.3423329,84.55 17.8,84.55 C20.2576671,84.55 22.25,86.5423329 22.25,89 C22.25,86.5423329 24.2423329,84.55 26.7,84.55 C29.1576671,84.55 31.15,86.5423329 31.15,89 C31.15,86.5423329 33.1423329,84.55 35.6,84.55 C38.0576671,84.55 40.05,86.5423329 40.05,89 C40.05,86.5423329 42.0423329,84.55 44.5,84.55 C46.9576671,84.55 48.95,86.5423329 48.95,89 C48.95,86.5423329 50.9423329,84.55 53.4,84.55 C55.8576671,84.55 57.85,86.5423329 57.85,89 C57.85,86.5423329 59.8423329,84.55 62.3,84.55 C64.7576671,84.55 66.75,86.5423329 66.75,89 Z" id="Rectangle-34" fill="#D8D8D8" filter="url(#filter-1)" sketch:type="MSShapeGroup"></path>
                <rect id="Rectangle-35" fill="#FFFFFF" sketch:type="MSShapeGroup" x="8" y="8" width="73" height="73"></rect>
                <text id="CANADA" sketch:type="MSTextLayer" font-family="Times New Roman" font-size="10" font-weight="normal" letter-spacing="3.29999995" fill="#FEA4A4">
                    <tspan x="15" y="80">CANAD</tspan>
                    <tspan x="67.0566404" y="80">A</tspan>
                </text>
                <path d="M44.8700577,66.3969696 L44.5269119,66.7401154 L21.8994949,44.1126984 L21.9226913,44.089502 C16.7583753,38.1974514 16.9863454,29.226858 22.6066017,23.6066017 C28.226858,17.9863454 37.1974514,17.7583753 43.089502,22.9226913 L43.1126984,22.8994949 L44.8700577,24.6568542 L46.627417,22.8994949 L46.6506133,22.9226913 C52.5426639,17.7583753 61.5132573,17.9863454 67.1335137,23.6066017 C72.75377,29.226858 72.9817401,38.1974514 67.8174241,44.089502 L67.8406204,44.1126984 L45.2132034,66.7401154 L44.8700577,66.3969696 Z" id="Oval-44" fill="#FFDAD4" sketch:type="MSShapeGroup"></path>
                <path d="M49.8700577,67.3969696 L49.5269119,67.7401154 L26.8994949,45.1126984 L26.9226913,45.089502 C21.7583753,39.1974514 21.9863454,30.226858 27.6066017,24.6066017 C33.226858,18.9863454 42.1974514,18.7583753 48.089502,23.9226913 L48.1126984,23.8994949 L49.8700577,25.6568542 L51.627417,23.8994949 L51.6506133,23.9226913 C57.5426639,18.7583753 66.5132573,18.9863454 72.1335137,24.6066017 C77.75377,30.226858 77.9817401,39.1974514 72.8174241,45.089502 L72.8406204,45.1126984 L50.2132034,67.7401154 L49.8700577,67.3969696 Z" id="Oval-44" fill="#FF5959" sketch:type="MSShapeGroup" transform="translate(49.870058, 43.976659) rotate(23.000000) translate(-49.870058, -43.976659) "></path>
            </g>
        </g>
    </g>
</svg>