<?xml version="1.0" encoding="UTF-8" standalone="no"?>
<svg width="1148px" height="375px" viewBox="0 0 1148 375" version="1.1" xmlns="http://www.w3.org/2000/svg" xmlns:xlink="http://www.w3.org/1999/xlink" xmlns:sketch="http://www.bohemiancoding.com/sketch/ns">
    <!-- Generator: Sketch 3.5.2 (25235) - http://www.bohemiancoding.com/sketch -->
    <title>Group 16</title>
    <desc>Created with Sketch.</desc>
    <defs></defs>
    <g id="Page-1" stroke="none" stroke-width="1" fill="none" fill-rule="evenodd" sketch:type="MSPage">
        <g id="Desktop-HD" sketch:type="MSArtboardGroup" transform="translate(-148.000000, -316.000000)">
            <g id="Group-16" sketch:type="MSLayerGroup" transform="translate(148.000000, 316.000000)">
                <path d="M25.5,201.9 C23,200.5 20.6,200 18.3,200 C7.1,200 0,210.1 0,219.7 C0,232.4 13.3,243.2 27.7,243.2 C43.7,243.2 61.1,234.2 63.4,196.1 C68.7,194 74.1,191 79.3,188.1 L79.5,191.7 C80,216.4 83.3,241.5 106.1,241.5 C116.9,241.5 127.4,234.3 127.4,221.2 C127.4,211.6 121.6,206.5 116,206.5 C114.3,206.5 112.6,206.9 111,208 L111.1,208.8 C112.6,207.8 114.3,207.3 115.9,207.3 C120.7,207.3 125.1,211.4 125.1,216.5 C125.1,222.5 120.4,229 112.4,229 C98.4,229 97,211.5 95.2,191.4 C94.8,187.8 94.4,184.1 93.6,180.4 C98.3,178.3 102.6,176.8 106.7,176.8 C122.7,176.8 121.7,196.6 109.2,196.6 C107.3,196.6 104.6,195.8 102.6,194 L102.5,194.7 C104.4,196.4 106.8,197.3 109.2,197.3 C123.1,197.3 123.6,176 106.7,176 C102.5,176 98.1,177.4 93.4,179.5 C88.9,157.4 76.9,135.9 54.2,135.9 C33.9,135.9 25.9,147.9 25.9,159.1 C25.9,166 28.8,171.1 32.9,174 C31.6,176.3 31,178.8 31,181.3 C31,189.7 37.4,198.9 50.4,198.9 C53.3,198.9 56.3,198.4 59.4,197.5 C52.7,220 32.3,226.9 17.7,226.9 C7.4,226.9 2,222 2,215.9 C2,208.7 9.1,200.9 18.3,200.9 C20.6,200.9 23.3,201.5 25.8,202.8 L25.5,201.9 Z M63.5,195.1 C63.6,192.6 63.7,190 63.7,187.2 C63.7,178.1 61.1,167.1 57,161.7 C55.1,176.2 42.4,179.3 34,173.8 C36.1,170.5 39.5,168.2 44.1,168.1 L44.1,167.5 C39,167.5 35.5,170 33.3,173.3 C29.5,170.4 26.8,165.7 26.8,159.4 C26.8,146.8 36,138.6 47.4,138.6 C61.9,138.6 77.3,152.1 79.3,187.1 C74,190.1 68.7,193 63.5,195.1 L63.5,195.1 Z M50.7,198 C38.4,198 31.9,189.8 31.9,181.3 C31.9,178.9 32.5,176.5 33.6,174.5 C42.3,180.1 55.3,177 57.4,163.7 C60.3,168 61.6,175.8 61.6,181 C61.6,186.8 60.9,192 59.6,196.5 C56.6,197.4 53.6,198 50.7,198 L50.7,198 Z M186.725,184.5 C186.725,177.4 182.025,174.7 176.125,174.7 C169.325,174.7 161.325,178.3 157.325,182.8 C156.625,176.3 151.525,174.7 146.525,174.7 C141.425,174.7 135.825,176.7 133.025,181.1 L133.925,181.3 C135.725,178.8 138.825,176.7 141.725,176.7 C143.525,176.7 144.825,178.2 144.825,180.3 C144.825,187.2 136.225,222.1 134.325,231.8 L135.125,231.8 L135.925,227.9 C138.125,227.1 140.625,226.6 142.425,226.6 C144.725,226.6 146.325,227.3 148.525,228.4 C150.325,220.1 157.425,189.5 157.425,184.3 L157.425,183.9 C160.125,180.9 164.825,177.7 168.425,177.7 C171.125,177.7 173.225,179.4 173.225,183.7 C173.225,193.2 166.725,208.9 166.725,219.4 C166.725,226.4 171.725,229.8 177.125,229.8 C183.925,229.8 190.125,224.4 191.025,213.6 L190.225,213.6 C189.425,223.8 183.825,227.7 181.525,227.7 C179.725,227.7 178.025,226.6 178.025,223.3 C178.025,216.2 186.725,191.3 186.725,184.5 L186.725,184.5 Z M224.650001,177.9 C207.450001,177.9 196.150001,197.3 196.150001,213 C196.150001,217.1 197.250001,221.6 198.850001,224.8 C197.750001,224.4 196.750001,224.2 195.750001,224.2 C189.150001,224.2 185.950001,229.4 185.950001,234.4 C185.950001,268.6 238.850001,256 238.850001,278.2 C238.850001,296.9 223.050001,298.7 218.150001,298.7 C188.450001,298.7 167.950001,252.6 134.150001,252.6 C89.5500006,252.6 81.6500006,314 127.150001,314 C131.250001,314 136.750001,312.9 140.950001,309.2 L140.750001,308.5 C137.250001,311.5 132.050001,313.1 127.150001,313.1 C89.4500006,313.1 90.7500006,270.2 115.050001,270.2 C141.850001,270.2 154.750001,313.2 200.550001,313.2 C220.650001,313.2 239.850001,296.6 239.850001,278.3 C239.850001,238.6 186.950001,249.2 186.950001,234.4 C186.950001,229.2 190.150001,225.1 195.750001,225.1 C196.750001,225.1 198.450001,225.3 199.650001,226.1 C204.350001,231.9 210.050001,232.9 213.850001,232.9 C230.450001,232.9 240.850001,211.5 240.850001,197.4 C240.850001,192.6 239.750001,186.9 234.450001,186.9 C229.050001,186.9 226.250001,191.7 226.250001,196.1 C226.250001,200.5 229.350001,203.3 233.050001,203.3 C236.150001,203.3 238.650001,201.3 239.850001,198.7 C239.150001,212.5 229.850001,228.2 220.750001,228.2 C212.150001,228.2 208.450001,220.2 208.450001,210 C208.450001,195.7 215.650001,179.2 226.250001,179.2 C229.150001,179.2 232.250001,180.1 235.350001,182.9 L236.050001,182.7 C234.950001,181.3 233.550001,179.2 233.550001,176.3 C233.550001,173 235.750001,170 239.250001,170 C242.050001,170 244.450001,171.9 244.450001,174.6 C244.450001,176.2 243.550001,177.9 241.850001,177.9 L241.650001,177.9 L241.650001,178.8 C244.150001,178.8 245.350001,176.3 245.350001,174.6 C245.350001,172.1 243.250001,169.1 239.250001,169.1 C235.650001,169.1 232.650001,172.1 232.650001,176.4 C232.650001,178 233.050001,179.4 233.750001,180.7 C231.150001,178.8 228.150001,177.9 224.650001,177.9 L224.650001,177.9 Z M282.275001,174.5 C247.275001,174.5 239.475001,229.6 268.675001,229.6 C279.775001,229.6 288.075001,224.9 292.975001,212.4 L292.175001,212.4 C287.675001,222.6 282.775001,225.7 277.175001,225.7 C268.875001,225.7 265.075001,218.3 264.575001,209.2 C283.875001,207.5 293.975001,194.7 293.975001,185.1 C293.975001,179.2 290.175001,174.5 282.275001,174.5 L282.275001,174.5 Z M283.375001,175.7 C289.775001,175.7 292.975001,179.7 292.975001,184.9 C292.975001,193.9 283.375001,206.6 264.475001,208.3 C264.075001,193.9 271.775001,175.7 283.375001,175.7 L283.375001,175.7 Z M282.900001,128.6 C282.900001,133 286.000001,135.8 289.700001,135.8 C294.400001,135.8 297.500001,131.4 297.500001,126.9 C297.500001,122.8 294.300001,119.3 290.300001,119.3 C281.100001,119.3 277.300001,129.3 277.300001,137 C277.300001,149.8 286.800001,165.2 312.200001,170.1 C308.100001,188.6 300.800001,216.2 300.800001,221.6 C300.800001,228.6 306.100001,230.6 311.500001,230.6 C317.700001,230.6 324.800001,225.7 325.900001,214.7 L325.000001,214.7 C324.500001,222.4 319.000001,228.5 315.700001,228.5 C313.900001,228.5 312.600001,228.2 312.600001,224.5 C312.600001,220.7 321.000001,190.1 325.100001,171.5 C326.700001,171.6 328.200001,171.6 329.900001,171.6 C368.700001,171.6 399.600001,138.4 399.600001,117.2 C399.600001,107.2 392.800001,99.9 376.800001,99.9 C363.800001,99.9 334.900001,111.6 326.900001,155.1 C325.600001,150.4 321.400001,148.5 316.800001,148.5 C311.200001,148.5 305.400001,151 303.000001,154.1 L303.500001,154.6 C305.700001,152.1 309.000001,150.4 311.900001,150.4 C313.800001,150.4 314.900001,151.7 314.900001,154.4 C314.900001,156.9 313.900001,162.2 312.400001,169 C287.700001,164.2 278.400001,149.4 278.400001,137.2 C278.400001,128.6 282.000001,123.4 286.100001,121.3 C284.000001,123.1 282.900001,126 282.900001,128.6 L282.900001,128.6 Z M327.400001,158.5 C332.400001,126.9 349.000001,111.6 362.600001,111.6 C371.200001,111.6 378.000001,117.6 378.000001,129 C378.000001,156.3 348.400001,170.5 329.900001,170.5 C328.300001,170.5 326.800001,170.5 325.400001,170.4 C326.600001,164.9 327.400001,160.6 327.400001,158.5 L327.400001,158.5 Z M392.650002,174.6 C375.650002,174.6 364.550002,194.5 364.550002,210.4 C364.550002,220.9 369.550002,229.6 381.850002,229.6 C388.150002,229.6 393.050002,226.8 396.850002,222.3 C397.450002,228 402.150002,230 406.950002,230 C415.050002,230 420.450002,223.9 421.550002,214 L420.650002,214 C419.950002,222.4 414.750002,227.9 411.750002,227.9 C409.450002,227.9 408.850002,226.9 408.850002,224.4 C408.850002,221.6 418.450002,183.1 420.350002,173.4 L419.550002,173.4 L418.750002,177.2 C415.550002,178.4 414.050002,178.6 412.250002,178.6 C409.950002,178.6 408.350002,177.9 406.150002,176.8 C405.750002,178.6 405.250002,181.3 404.450002,184.5 C402.650002,177.9 398.650002,174.6 392.650002,174.6 L392.650002,174.6 Z M396.750002,221.2 C393.950002,224.7 391.250002,226 388.450002,226 C381.450002,226 378.450002,219 378.450002,209.6 C378.450002,194.6 385.850002,175.9 394.150002,175.9 C398.950002,175.9 402.450002,179.5 404.150002,186 C401.150002,199.4 396.450002,217 396.750002,221.2 L396.750002,221.2 Z M476.775002,184.5 C476.775002,177.4 472.075002,174.7 466.175002,174.7 C459.375002,174.7 451.375002,178.3 447.375002,182.8 C446.675002,176.3 441.575002,174.7 436.575002,174.7 C431.475002,174.7 425.875002,176.7 423.075002,181.1 L423.975002,181.3 C425.775002,178.8 428.875002,176.7 431.775002,176.7 C433.575002,176.7 434.875002,178.2 434.875002,180.3 C434.875002,187.2 426.275002,222.1 424.375002,231.8 L425.175002,231.8 L425.975002,227.9 C428.175002,227.1 430.675002,226.6 432.475002,226.6 C434.775002,226.6 436.375002,227.3 438.575002,228.4 C440.375002,220.1 447.475002,189.5 447.475002,184.3 L447.475002,183.9 C450.175002,180.9 454.875002,177.7 458.475002,177.7 C461.175002,177.7 463.275002,179.4 463.275002,183.7 C463.275002,193.2 456.775002,208.9 456.775002,219.4 C456.775002,226.4 461.775002,229.8 467.175002,229.8 C473.975002,229.8 480.175002,224.4 481.075002,213.6 L480.275002,213.6 C479.475002,223.8 473.875002,227.7 471.575002,227.7 C469.775002,227.7 468.075002,226.6 468.075002,223.3 C468.075002,216.2 476.775002,191.3 476.775002,184.5 L476.775002,184.5 Z M500.500002,127.8 C500.500002,132.2 503.600002,135 507.300002,135 C512.000002,135 515.100002,130.6 515.100002,126.1 C515.100002,122 511.900002,118.5 507.900002,118.5 C498.700002,118.5 494.900002,128.5 494.900002,136.2 C494.900002,149 504.400002,164.3 529.700002,169.2 C528.500002,174.9 527.100002,180.9 526.000002,185 C524.200002,178.4 520.200002,175.1 514.200002,175.1 C497.200002,175.1 486.100002,195 486.100002,210.9 C486.100002,221.4 491.100002,230.1 503.400002,230.1 C509.700002,230.1 514.600002,227.3 518.400002,222.8 C519.000002,228.5 523.700002,230.5 528.500002,230.5 C536.600002,230.5 542.000002,224.4 543.100002,214.5 L542.200002,214.5 C541.500002,222.9 536.300002,228.4 533.300002,228.4 C531.000002,228.4 530.400002,227.4 530.400002,224.9 C530.400002,217.4 539.000002,188.5 543.000002,170.7 C544.400002,170.8 545.900002,170.8 547.500002,170.8 C586.300002,170.8 617.200002,137.6 617.200002,116.4 C617.200002,106.4 610.400002,99.1 594.400002,99.1 C581.400002,99.1 552.200002,111 544.400002,155 C543.200002,150.5 539.500002,148.4 534.300002,148.4 C528.900002,148.4 522.900002,150.8 520.500002,154.3 L521.800002,154.4 C523.500002,152.2 526.600002,150.5 528.600002,150.5 C530.900002,150.5 532.400002,151.3 532.400002,153.8 C532.400002,155.9 531.300002,161.8 529.900002,168.2 C505.200002,163.4 496.000002,148.6 496.000002,136.4 C496.000002,127.8 499.600002,122.6 503.700002,120.5 C501.600002,122.3 500.500002,125.2 500.500002,127.8 L500.500002,127.8 Z M544.900002,158.6 L544.900002,158.3 C549.800002,126.3 566.500002,110.8 580.200002,110.8 C588.800002,110.8 595.600002,116.8 595.600002,128.2 C595.600002,155.5 566.000002,169.7 547.500002,169.7 C546.000002,169.7 544.600002,169.7 543.200002,169.6 C544.200002,164.8 544.900002,160.9 544.900002,158.6 L544.900002,158.6 Z M518.300002,221.7 C515.500002,225.2 512.800002,226.5 510.000002,226.5 C503.000002,226.5 500.000002,219.5 500.000002,210.1 C500.000002,195.1 507.400002,176.4 515.700002,176.4 C520.500002,176.4 524.000002,180 525.700002,186.5 C522.700002,199.9 518.000002,217.5 518.300002,221.7 L518.300002,221.7 Z M619.750003,197.9 C621.050003,193.5 624.150003,191.4 628.750003,191.4 C635.850003,191.4 641.750003,197.5 641.750003,206.3 C641.750003,217.7 632.850003,225.1 623.150003,225.1 C613.150003,225.1 602.950003,217.2 602.950003,198 C602.950003,192.5 603.750003,187.2 605.050003,182.3 C634.050003,181.7 653.450003,161.8 653.450003,150.1 C653.450003,144.2 648.850003,141.3 641.950003,141.3 C619.250003,141.3 601.050003,159.8 592.350003,180.1 C582.850003,177.7 579.750003,172.2 579.750003,166.7 C579.750003,161.5 583.250003,157.3 588.250003,157.3 C590.750003,157.3 593.450003,158.2 595.050003,161.7 L595.750003,161.7 C594.150003,157.9 590.950003,156.4 588.250003,156.4 C583.050003,156.4 578.750003,161.3 578.750003,166.8 C578.750003,172.2 582.350003,178.3 592.050003,180.9 C588.750003,188.9 586.950003,197.2 586.950003,204.7 C586.950003,220.3 594.750003,232.6 613.050003,232.6 C627.550003,232.6 642.850003,222.2 642.850003,206.3 C642.850003,196.1 635.550003,190.4 628.750003,190.4 C624.350003,190.4 620.350003,192.7 618.750003,197.9 L619.750003,197.9 Z M641.950003,142.4 C666.750003,142.4 644.950003,180.4 605.250003,181.3 C611.850003,158.1 630.850003,142.4 641.950003,142.4 L641.950003,142.4 Z M633.875003,127.7 C633.875003,132.1 636.975003,134.9 640.675003,134.9 C645.375003,134.9 648.475003,130.5 648.475003,126 C648.475003,121.9 645.275003,118.4 641.275003,118.4 C632.075003,118.4 628.275003,128.4 628.275003,136.1 C628.275003,148.9 637.875003,164.3 663.375003,169.2 C659.475003,189.1 651.275003,224.5 649.875003,231.8 L650.675003,231.8 L651.475003,227.9 C653.675003,227.1 656.175003,226.6 657.975003,226.6 C660.275003,226.6 661.675003,227.3 663.875003,228.4 C664.875003,223.6 669.475003,203.3 673.075003,186.2 C675.675003,183 680.775003,179.4 684.575003,179.4 C687.275003,179.4 689.375003,181.1 689.375003,185.4 C689.375003,194.9 682.875003,210.6 682.875003,221.1 C682.875003,228.1 687.875003,231.5 693.275003,231.5 C700.075003,231.5 706.275003,226.1 707.175003,215.3 L706.375003,215.3 C705.575003,225.5 699.975003,229.4 697.675003,229.4 C695.875003,229.4 694.175003,228.3 694.175003,225 C694.175003,217.9 702.875003,193 702.875003,186.2 C702.875003,179.1 698.175003,176.4 692.275003,176.4 C685.475003,176.4 677.475003,180 673.475003,184.5 C674.575003,179.4 675.475003,174.6 676.275003,170.6 C677.775003,170.7 679.275003,170.7 680.875003,170.7 C719.675003,170.7 750.575003,137.5 750.575003,116.3 C750.575003,106.3 743.775003,99 727.775003,99 C714.475003,99 684.575003,111.2 677.375003,157.1 C675.975003,151.8 671.475003,150.3 667.575003,150.3 C661.975003,150.3 656.475003,152.4 653.675003,156.8 L654.575003,157 C656.975003,153.9 659.575003,152.5 661.475003,152.5 C663.775003,152.5 665.475003,153.5 665.475003,156 C665.475003,157.6 664.675003,162.2 663.575003,168.1 C638.675003,163.4 629.375003,148.5 629.375003,136.3 C629.375003,127.7 632.975003,122.5 637.075003,120.4 C634.975003,122.2 633.875003,125.1 633.875003,127.7 L633.875003,127.7 Z M677.875003,161 C682.175003,127.1 699.475003,110.7 713.575003,110.7 C722.175003,110.7 728.975003,116.7 728.975003,128.1 C728.975003,155.4 699.375003,169.6 680.875003,169.6 C679.375003,169.6 677.875003,169.6 676.475003,169.5 C677.275003,165.3 677.875003,162.2 677.875003,161 L677.875003,161 Z M710.800003,183.3 C712.600003,180.8 715.600003,178.7 718.600003,178.7 C720.500003,178.7 721.700003,180.1 721.700003,182.3 C721.700003,189.2 713.400003,222.1 711.500003,231.8 L712.300003,231.8 L713.100003,227.9 C715.300003,227.1 717.800003,226.6 719.600003,226.6 C721.900003,226.6 723.500003,227.3 725.700003,228.4 C727.300003,221.1 732.700003,198 734.000003,188.8 C738.000003,181.9 743.400003,177.5 748.200003,177.5 C749.200003,177.5 751.000003,177.9 751.800003,178.6 C749.700003,178.8 744.300003,180.4 744.300003,187.2 C744.300003,191.6 747.400003,194.4 751.100003,194.4 C755.800003,194.4 758.900003,190 758.900003,185.5 C758.900003,179.6 754.000003,176.6 748.100003,176.6 C743.600003,176.6 738.400003,180.3 734.300003,186.4 L734.300003,185.8 C734.300003,179.2 729.100003,176.2 723.400003,176.2 C718.200003,176.2 712.500003,178.7 709.900003,183.1 L710.800003,183.3 Z M786.325004,184.2 C786.325004,176.9 781.325004,174.2 775.725004,174.2 C769.425004,174.2 764.025004,177.1 761.825004,180.3 L762.725004,180.3 C764.525004,177.9 768.425004,175.8 770.825004,175.8 C772.725004,175.8 773.825004,176.7 773.825004,179.4 C773.825004,188.9 766.225004,209.2 766.225004,218.7 C766.225004,225.4 770.925004,229.6 777.325004,229.6 C783.925004,229.6 790.025004,224.2 791.425004,213.6 L790.525004,213.7 C789.925004,222.9 783.125004,228.2 780.825004,228.2 C779.025004,228.2 777.725004,226.7 777.725004,223 C777.725004,214.9 786.325004,193 786.325004,184.2 L786.325004,184.2 Z M785.925004,151.8 C780.525004,151.8 777.725004,156.6 777.725004,161 C777.725004,165.4 780.825004,168.2 784.525004,168.2 C789.225004,168.2 792.325004,163.8 792.325004,159.3 C792.325004,155.5 789.725004,151.8 785.925004,151.8 L785.925004,151.8 Z M808.650004,205.7 C807.850004,205.2 806.650004,204.9 805.050004,204.9 C800.650004,204.9 795.050004,209.1 795.050004,215.5 C795.050004,224.8 803.350004,229.6 812.850004,229.6 C823.650004,229.6 834.250004,223.3 834.250004,210.7 C834.250004,197.3 814.950004,191.6 814.950004,182 C814.950004,176.9 819.150004,174.5 822.850004,174.5 C829.350004,174.5 834.750004,177.9 834.750004,183.6 C834.750004,187.1 832.250004,189.6 829.650004,189.6 C826.450004,189.6 824.650004,187.6 824.650004,185.5 C824.650004,183.8 825.350004,182.6 826.950004,182.1 L826.950004,181.3 C825.050004,181.7 823.750004,183.4 823.750004,185.5 C823.750004,188.3 826.350004,190.5 829.550004,190.5 C832.150004,190.5 835.650004,188.4 835.650004,183.6 C835.650004,177.2 829.550004,173.5 822.050004,173.5 C811.150004,173.5 804.250004,179.7 804.250004,187.7 C804.250004,203.1 823.150004,205.8 823.150004,216.2 C823.150004,223.3 818.350004,228.4 812.050004,228.4 C803.150004,228.4 796.050004,223.9 796.050004,215.5 C796.050004,209.9 800.550004,205.8 805.250004,205.8 C806.450004,205.8 807.750004,206.1 808.750004,206.7 L808.650004,205.7 Z M843.875004,181.2 L850.575004,181.2 C847.375004,195.9 843.175004,215.7 843.175004,219.3 C843.175004,226.3 848.275004,229.6 853.675004,229.6 C862.875004,229.6 868.675004,224.6 869.775004,213.6 L868.875004,213.6 C867.975004,223.8 861.875004,227.5 858.875004,227.5 C857.475004,227.5 855.375004,226.8 855.375004,224.1 C855.375004,220.1 860.075004,198.7 863.975004,181.2 L875.075004,181.2 L875.375004,180.2 L864.175004,180.2 C866.275004,170.8 868.175004,162.6 868.875004,159.2 L868.075004,159.2 L867.275004,162.7 C866.375004,166.6 863.475004,168.2 860.575004,168.2 C858.475004,168.2 856.075004,167.7 853.775004,166.7 L850.775004,180.2 L844.175004,180.2 L843.875004,181.2 Z M913.400005,184 C908.000005,184 905.200005,188.8 905.200005,193.2 C905.200005,197.6 908.300005,200.4 912.000005,200.4 C916.200005,200.4 919.100005,196.9 919.700005,193 L919.700005,194.2 C919.700005,207.7 910.700005,225.5 900.500005,225.5 C891.900005,225.5 888.200005,217.5 888.200005,207.3 C888.200005,193.7 895.400005,176.2 906.000005,176.2 C907.800005,176.2 912.300005,176.9 915.500005,180.6 L915.400005,179.7 C912.100005,175.7 906.900005,175.2 904.400005,175.2 C887.200005,175.2 875.300005,191.6 875.300005,210.3 C875.300005,221.1 881.200005,230.2 893.600005,230.2 C909.300005,230.2 920.700005,210 920.700005,194.5 C920.700005,189.4 918.500005,184 913.400005,184 L913.400005,184 Z M953.625005,229.5 C970.625005,229.5 982.025005,211.1 982.025005,195.2 C982.025005,184.7 977.125005,176 964.725005,176 C958.525005,176 953.925005,178.7 949.825005,183.4 C949.125005,178 943.925005,176.1 939.025005,176.1 C931.725005,176.1 926.425005,179.8 925.225005,181.6 L925.625005,182.2 C927.725005,179.8 931.025005,178 934.125005,178 C936.025005,178 937.025005,179.3 937.025005,182 C937.025005,191.5 923.325005,238.8 923.325005,248.3 C923.325005,255.3 928.225005,258.2 933.625005,258.2 C939.825005,258.2 946.925005,253.3 948.025005,242.3 L947.125005,242.4 C946.725005,249.3 941.625005,256.1 937.925005,256.1 C936.125005,256.1 935.025005,255.2 935.025005,251.9 C935.025005,247.9 938.425005,235.2 941.825005,221.3 C943.025005,226.1 948.325005,229.5 953.625005,229.5 L953.625005,229.5 Z M949.825005,184.6 C953.825005,179.4 958.825005,177.4 961.525005,177.4 C967.025005,177.4 969.425005,182.8 969.425005,190.7 C969.425005,205.8 961.125005,226.8 949.625005,226.8 C946.225005,226.8 943.225005,224.4 942.125005,220.2 C945.925005,204.8 949.325005,192.2 949.825005,184.6 L949.825005,184.6 Z M973.550005,127.7 C973.550005,132.1 976.650005,134.9 980.350005,134.9 C985.050005,134.9 988.150005,130.5 988.150005,126 C988.150005,121.9 984.950005,118.4 980.950005,118.4 C971.750005,118.4 967.950005,128.4 967.950005,136.1 C967.950005,148.9 977.550005,164.3 1003.05001,169.2 C999.150005,189.1 990.950005,224.5 989.550005,231.8 L990.350005,231.8 L991.150005,227.9 C993.350005,227.1 995.850005,226.6 997.650005,226.6 C999.950005,226.6 1001.35001,227.3 1003.55001,228.4 C1004.55001,223.6 1009.15001,203.3 1012.75001,186.2 C1015.35001,183 1020.45001,179.4 1024.25001,179.4 C1026.95001,179.4 1029.05001,181.1 1029.05001,185.4 C1029.05001,194.9 1022.55001,210.6 1022.55001,221.1 C1022.55001,228.1 1027.55001,231.5 1032.95001,231.5 C1039.75001,231.5 1045.95001,226.1 1046.85001,215.3 L1046.05001,215.3 C1045.25001,225.5 1039.65001,229.4 1037.35001,229.4 C1035.55001,229.4 1033.85001,228.3 1033.85001,225 C1033.85001,217.9 1042.55001,193 1042.55001,186.2 C1042.55001,179.1 1037.85001,176.4 1031.95001,176.4 C1025.15001,176.4 1017.15001,180 1013.15001,184.5 C1014.25001,179.4 1015.15001,174.6 1015.95001,170.6 C1017.45001,170.7 1018.95001,170.7 1020.55001,170.7 C1059.35001,170.7 1090.25001,137.5 1090.25001,116.3 C1090.25001,106.3 1083.45001,99 1067.45001,99 C1054.15001,99 1024.25001,111.2 1017.05001,157.1 C1015.65001,151.8 1011.15001,150.3 1007.25001,150.3 C1001.65001,150.3 996.150005,152.4 993.350005,156.8 L994.250005,157 C996.650005,153.9 999.250005,152.5 1001.15001,152.5 C1003.45001,152.5 1005.15001,153.5 1005.15001,156 C1005.15001,157.6 1004.35001,162.2 1003.25001,168.1 C978.350005,163.4 969.050005,148.5 969.050005,136.3 C969.050005,127.7 972.650005,122.5 976.750005,120.4 C974.650005,122.2 973.550005,125.1 973.550005,127.7 L973.550005,127.7 Z M1017.55001,161 C1021.85001,127.1 1039.15001,110.7 1053.25001,110.7 C1061.85001,110.7 1068.65001,116.7 1068.65001,128.1 C1068.65001,155.4 1039.05001,169.6 1020.55001,169.6 C1019.05001,169.6 1017.55001,169.6 1016.15001,169.5 C1016.95001,165.3 1017.55001,162.2 1017.55001,161 L1017.55001,161 Z M1084.27501,174.5 C1049.27501,174.5 1041.47501,229.6 1070.67501,229.6 C1081.77501,229.6 1090.07501,224.9 1094.97501,212.4 L1094.17501,212.4 C1089.67501,222.6 1084.77501,225.7 1079.17501,225.7 C1070.87501,225.7 1067.07501,218.3 1066.57501,209.2 C1085.87501,207.5 1095.97501,194.7 1095.97501,185.1 C1095.97501,179.2 1092.17501,174.5 1084.27501,174.5 L1084.27501,174.5 Z M1085.37501,175.7 C1091.77501,175.7 1094.97501,179.7 1094.97501,184.9 C1094.97501,193.9 1085.37501,206.6 1066.47501,208.3 C1066.07501,193.9 1073.77501,175.7 1085.37501,175.7 L1085.37501,175.7 Z M1099.30001,183.3 C1101.10001,180.8 1104.10001,178.7 1107.10001,178.7 C1109.00001,178.7 1110.20001,180.1 1110.20001,182.3 C1110.20001,189.2 1101.90001,222.1 1100.00001,231.8 L1100.80001,231.8 L1101.60001,227.9 C1103.80001,227.1 1106.30001,226.6 1108.10001,226.6 C1110.40001,226.6 1112.00001,227.3 1114.20001,228.4 C1115.80001,221.1 1121.20001,198 1122.50001,188.8 C1126.50001,181.9 1131.90001,177.5 1136.70001,177.5 C1137.70001,177.5 1139.50001,177.9 1140.30001,178.6 C1138.20001,178.8 1132.80001,180.4 1132.80001,187.2 C1132.80001,191.6 1135.90001,194.4 1139.60001,194.4 C1144.30001,194.4 1147.40001,190 1147.40001,185.5 C1147.40001,179.6 1142.50001,176.6 1136.60001,176.6 C1132.10001,176.6 1126.90001,180.3 1122.80001,186.4 L1122.80001,185.8 C1122.80001,179.2 1117.60001,176.2 1111.90001,176.2 C1106.70001,176.2 1101.00001,178.7 1098.40001,183.1 L1099.30001,183.3 Z" id="Angel-and-Christophe" fill="#FFFFFF" sketch:type="MSShapeGroup"></path>
                <g id="Group" transform="translate(39.000000, 0.000000)" sketch:type="MSShapeGroup">
                    <path d="M411.710938,27.9765625 C410.753901,27.9765625 409.953128,27.8544934 409.308594,27.6103516 L409.308594,24.6660156 C410.12891,24.8710948 410.841794,24.9736328 411.447266,24.9736328 C413.361338,24.9736328 414.318359,23.7627074 414.318359,21.3408203 L414.318359,0.583984375 L417.833984,0.583984375 L417.833984,21.2236328 C417.833984,23.4111438 417.31397,25.0834903 416.273926,26.2407227 C415.233882,27.397955 413.712901,27.9765625 411.710938,27.9765625 L411.710938,27.9765625 Z M444.172852,0.583984375 L444.172852,14.4414062 C444.172852,16.0234454 443.833499,17.4077089 443.154785,18.5942383 C442.476071,19.7807677 441.494635,20.6938445 440.210449,21.3334961 C438.926263,21.9731477 437.390634,22.2929688 435.603516,22.2929688 C432.947252,22.2929688 430.881843,21.5898508 429.407227,20.1835938 C427.93261,18.7773367 427.195312,16.8437623 427.195312,14.3828125 L427.195312,0.583984375 L430.710938,0.583984375 L430.710938,14.1337891 C430.710938,15.901376 431.12109,17.2050739 431.941406,18.0449219 C432.761723,18.8847698 434.021476,19.3046875 435.720703,19.3046875 C439.021501,19.3046875 440.671875,17.5713064 440.671875,14.1044922 L440.671875,0.583984375 L444.172852,0.583984375 Z M471.493164,22 L467.201172,22 L456.668945,4.93457031 L456.551758,4.93457031 L456.625,5.88671875 C456.761719,7.70313408 456.830078,9.36327373 456.830078,10.8671875 L456.830078,22 L453.651367,22 L453.651367,0.583984375 L457.899414,0.583984375 L468.402344,17.5615234 L468.490234,17.5615234 C468.470703,17.3369129 468.431641,16.51905 468.373047,15.1079102 C468.314453,13.6967703 468.285156,12.5957071 468.285156,11.8046875 L468.285156,0.583984375 L471.493164,0.583984375 L471.493164,22 Z M493.261719,22 L481.147461,22 L481.147461,0.583984375 L493.261719,0.583984375 L493.261719,3.54296875 L484.648438,3.54296875 L484.648438,9.37304688 L492.719727,9.37304688 L492.719727,12.3027344 L484.648438,12.3027344 L484.648438,19.0263672 L493.261719,19.0263672 L493.261719,22 Z M522.282227,22 L518.839844,22 L518.839844,8.171875 C518.839844,6.52147612 518.878906,5.21289546 518.957031,4.24609375 C518.732421,4.48046992 518.456545,4.7392564 518.129395,5.02246094 C517.802244,5.30566548 516.706064,6.20409399 514.84082,7.71777344 L513.112305,5.53515625 L519.411133,0.583984375 L522.282227,0.583984375 L522.282227,22 Z M540.535156,0.305664062 C542.566416,0.305664062 544.172846,0.771967993 545.354492,1.70458984 C546.536139,2.63721169 547.126953,3.88475781 547.126953,5.44726562 C547.126953,7.64454224 545.808607,9.39257163 543.171875,10.6914062 C544.851571,11.5312542 546.045407,12.4150344 546.753418,13.3427734 C547.461429,14.2705125 547.81543,15.3056583 547.81543,16.4482422 C547.81543,18.2158292 547.166022,19.6318306 545.867188,20.6962891 C544.568353,21.7607475 542.810558,22.2929688 540.59375,22.2929688 C538.26952,22.2929688 536.46778,21.7949269 535.188477,20.7988281 C533.909173,19.8027294 533.269531,18.3916107 533.269531,16.5654297 C533.269531,15.3740175 533.604001,14.3022509 534.272949,13.3500977 C534.941898,12.3979445 536.038078,11.550785 537.561523,10.8085938 C536.252923,10.0273398 535.320315,9.20215278 534.763672,8.33300781 C534.207028,7.46386284 533.928711,6.48731011 533.928711,5.40332031 C533.928711,3.85057817 534.539056,2.61279758 535.759766,1.68994141 C536.980475,0.767085229 538.572256,0.305664062 540.535156,0.305664062 L540.535156,0.305664062 Z M536.56543,16.4482422 C536.56543,17.4638723 536.921871,18.2524386 537.634766,18.8139648 C538.34766,19.3754911 539.314447,19.65625 540.535156,19.65625 C541.794928,19.65625 542.773922,19.3657256 543.472168,18.784668 C544.170414,18.2036104 544.519531,17.415044 544.519531,16.4189453 C544.519531,15.6279257 544.197269,14.9052767 543.552734,14.2509766 C542.9082,13.5966764 541.931647,12.9912137 540.623047,12.4345703 L540.198242,12.2441406 C538.909173,12.8105497 537.981448,13.4331021 537.415039,14.1118164 C536.84863,14.7905307 536.56543,15.5693315 536.56543,16.4482422 L536.56543,16.4482422 Z M540.505859,2.95703125 C539.529292,2.95703125 538.743167,3.19872805 538.147461,3.68212891 C537.551755,4.16552976 537.253906,4.82226147 537.253906,5.65234375 C537.253906,6.16015879 537.361327,6.61425581 537.576172,7.01464844 C537.791017,7.41504106 538.103514,7.77880696 538.513672,8.10595703 C538.92383,8.4331071 539.617183,8.82616958 540.59375,9.28515625 C541.765631,8.76757554 542.593259,8.22314739 543.07666,7.65185547 C543.560061,7.08056355 543.801758,6.41406631 543.801758,5.65234375 C543.801758,4.82226147 543.501468,4.16552976 542.900879,3.68212891 C542.30029,3.19872805 541.501958,2.95703125 540.505859,2.95703125 L540.505859,2.95703125 Z M559.139648,18.8505859 C558.670896,20.6670013 557.81153,23.0058451 556.561523,25.8671875 L554.027344,25.8671875 C554.701175,23.2304556 555.2041,20.7793082 555.536133,18.5136719 L558.919922,18.5136719 L559.139648,18.8505859 Z M592.745117,22 L578.228516,22 L578.228516,19.3925781 L583.750977,13.8408203 C585.381844,12.1708901 586.463376,10.9868199 586.995605,10.2885742 C587.527835,9.59032854 587.916014,8.93359683 588.160156,8.31835938 C588.404298,7.70312192 588.526367,7.04394883 588.526367,6.34082031 C588.526367,5.3740186 588.235843,4.61230747 587.654785,4.05566406 C587.073728,3.49902065 586.270513,3.22070312 585.245117,3.22070312 C584.424801,3.22070312 583.631351,3.3720688 582.864746,3.67480469 C582.098141,3.97754058 581.211919,4.52441011 580.206055,5.31542969 L578.345703,3.04492188 C579.537115,2.03905747 580.69433,1.32617397 581.817383,0.90625 C582.940435,0.486326025 584.136712,0.276367188 585.40625,0.276367188 C587.398447,0.276367188 588.995111,0.796381519 590.196289,1.83642578 C591.397467,2.87647004 591.998047,4.27538184 591.998047,6.03320313 C591.998047,7.00000483 591.824709,7.9179644 591.478027,8.78710938 C591.131346,9.65625435 590.599125,10.5522415 589.881348,11.4750977 C589.163571,12.3979538 587.969735,13.6455 586.299805,15.2177734 L582.579102,18.8212891 L582.579102,18.9677734 L592.745117,18.9677734 L592.745117,22 Z M613.869141,11.2919922 C613.869141,15.0127139 613.271002,17.7763582 612.074707,19.5830078 C610.878412,21.3896575 609.049817,22.2929688 606.588867,22.2929688 C604.206043,22.2929688 602.39942,21.3603609 601.168945,19.4951172 C599.93847,17.6298735 599.323242,14.8955258 599.323242,11.2919922 C599.323242,7.51267642 599.921381,4.72705974 601.117676,2.93505859 C602.313971,1.14305745 604.137683,0.247070312 606.588867,0.247070312 C608.981457,0.247070312 610.792963,1.18456094 612.023438,3.05957031 C613.253912,4.93457969 613.869141,7.67869287 613.869141,11.2919922 L613.869141,11.2919922 Z M602.80957,11.2919922 C602.80957,14.2119287 603.10986,16.2968688 603.710449,17.546875 C604.311038,18.7968812 605.270501,19.421875 606.588867,19.421875 C607.907233,19.421875 608.871579,18.7871157 609.481934,17.5175781 C610.092288,16.2480405 610.397461,14.172866 610.397461,11.2919922 C610.397461,8.42088408 610.092288,6.34326814 609.481934,5.05908203 C608.871579,3.77489592 607.907233,3.1328125 606.588867,3.1328125 C605.270501,3.1328125 604.311038,3.76268901 603.710449,5.02246094 C603.10986,6.28223286 602.80957,8.37205571 602.80957,11.2919922 L602.80957,11.2919922 Z M630.583984,22 L627.141602,22 L627.141602,8.171875 C627.141602,6.52147612 627.180664,5.21289546 627.258789,4.24609375 C627.034179,4.48046992 626.758302,4.7392564 626.431152,5.02246094 C626.104002,5.30566548 625.007822,6.20409399 623.142578,7.71777344 L621.414062,5.53515625 L627.712891,0.583984375 L630.583984,0.583984375 L630.583984,22 Z M641.65918,12.8740234 C641.65918,4.49507529 645.072231,0.305664062 651.898438,0.305664062 C652.972662,0.305664062 653.880856,0.388671045 654.623047,0.5546875 L654.623047,3.42578125 C653.880856,3.21093643 653.021489,3.10351562 652.044922,3.10351562 C649.749989,3.10351562 648.026373,3.71874385 646.874023,4.94921875 C645.721674,6.17969365 645.09668,8.15233018 644.999023,10.8671875 L645.174805,10.8671875 C645.633791,10.0761679 646.278316,9.46338108 647.108398,9.02880859 C647.938481,8.59423611 648.915033,8.37695312 650.038086,8.37695312 C651.981455,8.37695312 653.495112,8.97265029 654.579102,10.1640625 C655.663091,11.3554747 656.205078,12.9716695 656.205078,15.0126953 C656.205078,17.2588003 655.577643,19.0336849 654.322754,20.3374023 C653.067865,21.6411198 651.356456,22.2929688 649.188477,22.2929688 C647.655266,22.2929688 646.322271,21.9243201 645.189453,21.1870117 C644.056635,20.4497033 643.185062,19.3754953 642.574707,17.9643555 C641.964352,16.5532156 641.65918,14.8564552 641.65918,12.8740234 L641.65918,12.8740234 Z M649.129883,19.4511719 C650.311529,19.4511719 651.222165,19.0703163 651.861816,18.3085938 C652.501468,17.5468712 652.821289,16.4580149 652.821289,15.0419922 C652.821289,13.8115173 652.520999,12.8447301 651.92041,12.1416016 C651.319821,11.438473 650.418951,11.0869141 649.217773,11.0869141 C648.475582,11.0869141 647.791995,11.2456039 647.166992,11.5629883 C646.541989,11.8803727 646.04883,12.3149386 645.6875,12.8666992 C645.32617,13.4184598 645.145508,13.982419 645.145508,14.5585938 C645.145508,15.9355538 645.519039,17.0952101 646.266113,18.0375977 C647.013187,18.9799852 647.967768,19.4511719 649.129883,19.4511719 L649.129883,19.4511719 Z" id="JUNE-18,-2016" fill="#FFFFFF"></path>
                    <path d="M0.5,14.5 L391.511505,14.5" id="Line" stroke="#FFFFFF" stroke-linecap="square"></path>
                    <path d="M678.5,13.5 L1069.51151,13.5" id="Line" stroke="#FFFFFF" stroke-linecap="square"></path>
                </g>
                <g id="Group" transform="translate(39.000000, 352.000000)" sketch:type="MSShapeGroup">
                    <path d="M345.294922,22 L343.15625,16.0527344 L334.967773,16.0527344 L332.873047,22 L329.181641,22 L337.194336,0.49609375 L341.00293,0.49609375 L349.015625,22 L345.294922,22 Z M342.233398,13.0351562 L340.226562,7.20507812 C340.080077,6.81445117 339.877443,6.19922295 339.618652,5.359375 C339.359862,4.51952705 339.181641,3.90429883 339.083984,3.51367188 C338.820311,4.71484976 338.434573,6.02831318 337.926758,7.45410156 L335.993164,13.0351562 L342.233398,13.0351562 Z M359.34375,10.5449219 L361.775391,10.5449219 C363.406258,10.5449219 364.587887,10.2421905 365.320312,9.63671875 C366.052738,9.03124697 366.418945,8.13281846 366.418945,6.94140625 C366.418945,5.7304627 366.023441,4.86133076 365.232422,4.33398438 C364.441402,3.80663799 363.250008,3.54296875 361.658203,3.54296875 L359.34375,3.54296875 L359.34375,10.5449219 Z M359.34375,13.4453125 L359.34375,22 L355.842773,22 L355.842773,0.583984375 L361.892578,0.583984375 C364.656264,0.583984375 366.702142,1.10155732 368.030273,2.13671875 C369.358405,3.17188018 370.022461,4.73436455 370.022461,6.82421875 C370.022461,9.49024771 368.635756,11.3896428 365.862305,12.5224609 L371.912109,22 L367.927734,22 L362.800781,13.4453125 L359.34375,13.4453125 Z M391.131836,22 L379.017578,22 L379.017578,0.583984375 L391.131836,0.583984375 L391.131836,3.54296875 L382.518555,3.54296875 L382.518555,9.37304688 L390.589844,9.37304688 L390.589844,12.3027344 L382.518555,12.3027344 L382.518555,19.0263672 L391.131836,19.0263672 L391.131836,22 Z M420.313477,10.3837891 L428.194336,10.3837891 L428.194336,21.1357422 C426.905267,21.5556662 425.667486,21.8535147 424.480957,22.0292969 C423.294428,22.205079 422.012702,22.2929688 420.635742,22.2929688 C417.393538,22.2929688 414.893563,21.3335057 413.135742,19.4145508 C411.377921,17.4955959 410.499023,14.7881034 410.499023,11.2919922 C410.499023,7.84470933 411.490224,5.1469824 413.472656,3.19873047 C415.455088,1.25047854 418.184553,0.276367188 421.661133,0.276367188 C423.897472,0.276367188 426.016592,0.706050391 428.018555,1.56542969 L426.788086,4.48046875 C425.049796,3.6796835 423.311532,3.27929688 421.573242,3.27929688 C419.288075,3.27929688 417.481452,3.99706313 416.15332,5.43261719 C414.825189,6.86817124 414.161133,8.83104224 414.161133,11.3212891 C414.161133,13.9384896 414.759271,15.9282158 415.955566,17.2905273 C417.151861,18.6528388 418.873036,19.3339844 421.119141,19.3339844 C422.251959,19.3339844 423.462884,19.1923842 424.751953,18.9091797 L424.751953,13.3867188 L420.313477,13.3867188 L420.313477,10.3837891 Z M449.450195,22 L437.335938,22 L437.335938,0.583984375 L449.450195,0.583984375 L449.450195,3.54296875 L440.836914,3.54296875 L440.836914,9.37304688 L448.908203,9.37304688 L448.908203,12.3027344 L440.836914,12.3027344 L440.836914,19.0263672 L449.450195,19.0263672 L449.450195,22 Z M465.476562,22 L461.975586,22 L461.975586,3.58691406 L455.676758,3.58691406 L455.676758,0.583984375 L471.775391,0.583984375 L471.775391,3.58691406 L465.476562,3.58691406 L465.476562,22 Z M487.054688,22 L483.553711,22 L483.553711,3.58691406 L477.254883,3.58691406 L477.254883,0.583984375 L493.353516,0.583984375 L493.353516,3.58691406 L487.054688,3.58691406 L487.054688,22 Z M500.634766,22 L500.634766,0.583984375 L504.135742,0.583984375 L504.135742,22 L500.634766,22 Z M531.631836,22 L527.339844,22 L516.807617,4.93457031 L516.69043,4.93457031 L516.763672,5.88671875 C516.900391,7.70313408 516.96875,9.36327373 516.96875,10.8671875 L516.96875,22 L513.790039,22 L513.790039,0.583984375 L518.038086,0.583984375 L528.541016,17.5615234 L528.628906,17.5615234 C528.609375,17.3369129 528.570313,16.51905 528.511719,15.1079102 C528.453125,13.6967703 528.423828,12.5957071 528.423828,11.8046875 L528.423828,0.583984375 L531.631836,0.583984375 L531.631836,22 Z M550.045898,10.3837891 L557.926758,10.3837891 L557.926758,21.1357422 C556.637689,21.5556662 555.399908,21.8535147 554.213379,22.0292969 C553.02685,22.205079 551.745124,22.2929688 550.368164,22.2929688 C547.12596,22.2929688 544.625985,21.3335057 542.868164,19.4145508 C541.110343,17.4955959 540.231445,14.7881034 540.231445,11.2919922 C540.231445,7.84470933 541.222646,5.1469824 543.205078,3.19873047 C545.18751,1.25047854 547.916975,0.276367188 551.393555,0.276367188 C553.629894,0.276367188 555.749013,0.706050391 557.750977,1.56542969 L556.520508,4.48046875 C554.782218,3.6796835 553.043954,3.27929688 551.305664,3.27929688 C549.020496,3.27929688 547.213874,3.99706313 545.885742,5.43261719 C544.557611,6.86817124 543.893555,8.83104224 543.893555,11.3212891 C543.893555,13.9384896 544.491693,15.9282158 545.687988,17.2905273 C546.884283,18.6528388 548.605458,19.3339844 550.851562,19.3339844 C551.984381,19.3339844 553.195306,19.1923842 554.484375,18.9091797 L554.484375,13.3867188 L550.045898,13.3867188 L550.045898,10.3837891 Z M588.119141,22 L581.908203,4.11425781 L581.791016,4.11425781 C581.957032,6.77052109 582.040039,9.26073057 582.040039,11.5849609 L582.040039,22 L578.861328,22 L578.861328,0.583984375 L583.797852,0.583984375 L589.745117,17.6201172 L589.833008,17.6201172 L595.956055,0.583984375 L600.907227,0.583984375 L600.907227,22 L597.538086,22 L597.538086,11.4091797 C597.538086,10.3447212 597.564941,8.95801636 597.618652,7.24902344 C597.672364,5.54003052 597.71875,4.50488462 597.757812,4.14355469 L597.640625,4.14355469 L591.209961,22 L588.119141,22 Z M623.833008,22 L621.694336,16.0527344 L613.505859,16.0527344 L611.411133,22 L607.719727,22 L615.732422,0.49609375 L619.541016,0.49609375 L627.553711,22 L623.833008,22 Z M620.771484,13.0351562 L618.764648,7.20507812 C618.618163,6.81445117 618.415529,6.19922295 618.156738,5.359375 C617.897948,4.51952705 617.719727,3.90429883 617.62207,3.51367188 C617.358397,4.71484976 616.972659,6.02831318 616.464844,7.45410156 L614.53125,13.0351562 L620.771484,13.0351562 Z M637.881836,10.5449219 L640.313477,10.5449219 C641.944344,10.5449219 643.125973,10.2421905 643.858398,9.63671875 C644.590824,9.03124697 644.957031,8.13281846 644.957031,6.94140625 C644.957031,5.7304627 644.561527,4.86133076 643.770508,4.33398438 C642.979488,3.80663799 641.788094,3.54296875 640.196289,3.54296875 L637.881836,3.54296875 L637.881836,10.5449219 Z M637.881836,13.4453125 L637.881836,22 L634.380859,22 L634.380859,0.583984375 L640.430664,0.583984375 C643.19435,0.583984375 645.240228,1.10155732 646.568359,2.13671875 C647.896491,3.17188018 648.560547,4.73436455 648.560547,6.82421875 C648.560547,9.49024771 647.173842,11.3896428 644.400391,12.5224609 L650.450195,22 L646.46582,22 L641.338867,13.4453125 L637.881836,13.4453125 Z M661.056641,10.5449219 L663.488281,10.5449219 C665.119149,10.5449219 666.300778,10.2421905 667.033203,9.63671875 C667.765629,9.03124697 668.131836,8.13281846 668.131836,6.94140625 C668.131836,5.7304627 667.736332,4.86133076 666.945312,4.33398438 C666.154293,3.80663799 664.962899,3.54296875 663.371094,3.54296875 L661.056641,3.54296875 L661.056641,10.5449219 Z M661.056641,13.4453125 L661.056641,22 L657.555664,22 L657.555664,0.583984375 L663.605469,0.583984375 C666.369154,0.583984375 668.415032,1.10155732 669.743164,2.13671875 C671.071296,3.17188018 671.735352,4.73436455 671.735352,6.82421875 C671.735352,9.49024771 670.348647,11.3896428 667.575195,12.5224609 L673.625,22 L669.640625,22 L664.513672,13.4453125 L661.056641,13.4453125 Z M680.730469,22 L680.730469,0.583984375 L684.231445,0.583984375 L684.231445,22 L680.730469,22 Z M706,22 L693.885742,22 L693.885742,0.583984375 L706,0.583984375 L706,3.54296875 L697.386719,3.54296875 L697.386719,9.37304688 L705.458008,9.37304688 L705.458008,12.3027344 L697.386719,12.3027344 L697.386719,19.0263672 L706,19.0263672 L706,22 Z M732.045898,11.0869141 C732.045898,14.622088 731.064463,17.3246977 729.101562,19.1948242 C727.138662,21.0649508 724.311542,22 720.620117,22 L714.628906,22 L714.628906,0.583984375 L721.25,0.583984375 C724.65822,0.583984375 727.309561,1.50194395 729.204102,3.33789062 C731.098642,5.1738373 732.045898,7.75681929 732.045898,11.0869141 L732.045898,11.0869141 Z M728.354492,11.2041016 C728.354492,6.0771228 725.957055,3.51367188 721.162109,3.51367188 L718.129883,3.51367188 L718.129883,19.0556641 L720.620117,19.0556641 C725.776393,19.0556641 728.354492,16.4385027 728.354492,11.2041016 L728.354492,11.2041016 Z" id="ARE-GETTING-MARRIED" fill="#FFFFFF"></path>
                    <path d="M0.5,14.5 L312.525635,14.5" id="Line" stroke="#FFFFFF" stroke-linecap="square"></path>
                    <path d="M751.498428,13.5 L1069.51151,13.5" id="Line" stroke="#FFFFFF" stroke-linecap="square"></path>
                </g>
            </g>
        </g>
    </g>
</svg>